<?xml version="1.0" encoding="UTF-8" standalone="no"?>
<!-- Created with Inkscape (http://www.inkscape.org/) -->

<svg
   xmlns:dc="http://purl.org/dc/elements/1.1/"
   xmlns:cc="http://creativecommons.org/ns#"
   xmlns:rdf="http://www.w3.org/1999/02/22-rdf-syntax-ns#"
   xmlns:svg="http://www.w3.org/2000/svg"
   xmlns="http://www.w3.org/2000/svg"
   xmlns:sodipodi="http://sodipodi.sourceforge.net/DTD/sodipodi-0.dtd"
   xmlns:inkscape="http://www.inkscape.org/namespaces/inkscape"
   width="885"
   height="100"
   viewBox="0 0 884.99996 99.999995"
   id="svg2"
   version="1.1"
   inkscape:version="0.91 r13725"
   sodipodi:docname="banner.svg">
  <defs
     id="defs4" />
  <sodipodi:namedview
     id="base"
     pagecolor="#ffffff"
     bordercolor="#666666"
     borderopacity="1.0"
     inkscape:pageopacity="0.0"
     inkscape:pageshadow="2"
     inkscape:zoom="0.98994949"
     inkscape:cx="298.37649"
     inkscape:cy="-76.784825"
     inkscape:document-units="px"
     inkscape:current-layer="layer1"
     showgrid="false"
     inkscape:window-width="1600"
     inkscape:window-height="873"
     inkscape:window-x="0"
     inkscape:window-y="27"
     inkscape:window-maximized="1"
     units="px" />
  <metadata
     id="metadata7">
    <rdf:RDF>
      <cc:Work
         rdf:about="">
        <dc:format>image/svg+xml</dc:format>
        <dc:type
           rdf:resource="http://purl.org/dc/dcmitype/StillImage" />
        <dc:title />
      </cc:Work>
    </rdf:RDF>
  </metadata>
  <g
     inkscape:label="Capa 1"
     inkscape:groupmode="layer"
     id="layer1"
     transform="translate(0,-952.36224)">
    <path
       inkscape:connector-curvature="0"
       id="path4198"
       d="m 160.57144,620.21939 0,-128 128,0 128,0 0,128 0,128 -128,0 -128,0 0,-128 z"
       style="fill:#fefefd" />
    <g
       style="font-style:normal;font-weight:normal;font-size:40px;line-height:125%;font-family:sans-serif;letter-spacing:0px;word-spacing:0px;fill:#000000;fill-opacity:1;stroke:none;stroke-width:1px;stroke-linecap:butt;stroke-linejoin:miter;stroke-opacity:1"
       id="text4146">
      <g
         style="font-style:normal;font-weight:normal;font-size:40px;line-height:125%;font-family:sans-serif;letter-spacing:0px;word-spacing:0px;fill:#000000;fill-opacity:1;stroke:none;stroke-width:1px;stroke-linecap:butt;stroke-linejoin:miter;stroke-opacity:1"
         id="text4154">
        <path
           d="m 44.995944,984.5973 15.600584,0 q 6.958007,0 10.668944,3.10058 3.735351,3.07617 3.735351,8.78906 0,5.73726 -3.735351,8.83786 -3.710937,3.0762 -10.668944,3.0762 l -6.201171,0 0,12.6465 -9.399413,0 0,-36.4502 z m 9.399413,6.81152 0,10.18068 5.200194,0 q 2.734375,0 4.223633,-1.3184 1.489257,-1.34275 1.489257,-3.78416 0,-2.4414 -1.489257,-3.75976 -1.489258,-1.31836 -4.223633,-1.31836 l -5.200194,0 z"
           style="font-style:normal;font-variant:normal;font-weight:bold;font-stretch:normal;font-size:49.99999237px;font-family:'DejaVu Sans';-inkscape-font-specification:'DejaVu Sans Bold'"
           id="path4607" />
        <path
           d="m 81.226409,993.70374 8.740233,0 0,27.34376 -8.740233,0 0,-27.34376 z m 0,-10.64453 8.740233,0 0,7.12891 -8.740233,0 0,-7.12891 z"
           style="font-style:normal;font-variant:normal;font-weight:bold;font-stretch:normal;font-size:49.99999237px;font-family:'DejaVu Sans';-inkscape-font-specification:'DejaVu Sans Bold'"
           id="path4609" />
        <path
           d="m 107.15414,1017.0924 0,14.3555 -8.740235,0 0,-37.74416 8.740235,0 0,4.00391 q 1.80664,-2.39258 4.0039,-3.51563 2.19727,-1.14746 5.05371,-1.14746 5.05371,0 8.30078,4.02832 3.24707,4.00392 3.24707,10.32712 0,6.3233 -3.24707,10.3516 -3.24707,4.0039 -8.30078,4.0039 -2.85644,0 -5.05371,-1.1231 -2.19726,-1.1474 -4.0039,-3.54 z m 5.81054,-17.70018 q -2.80761,0 -4.32128,2.07518 -1.48926,2.0508 -1.48926,5.9326 0,3.8819 1.48926,5.9571 1.51367,2.0507 4.32128,2.0507 2.80762,0 4.27246,-2.0507 1.48926,-2.0508 1.48926,-5.9571 0,-3.9062 -1.48926,-5.957 -1.46484,-2.05078 -4.27246,-2.05078 z"
           style="font-style:normal;font-variant:normal;font-weight:bold;font-stretch:normal;font-size:49.99999237px;font-family:'DejaVu Sans';-inkscape-font-specification:'DejaVu Sans Bold'"
           id="path4611" />
        <path
           d="m 177.39339,985.74476 0,7.71484 q -3.00293,-1.34277 -5.85938,-2.02637 -2.85644,-0.68359 -5.39551,-0.68359 -3.36914,0 -4.98046,0.92773 -1.61133,0.92774 -1.61133,2.88086 0,1.46485 1.07422,2.29492 1.09863,0.80567 3.95508,1.3916 l 4.0039,0.80567 q 6.0791,1.22068 8.64258,3.71098 2.56347,2.4902 2.56347,7.08 0,6.0303 -3.58886,8.9844 -3.56446,2.9297 -10.91309,2.9297 -3.46679,0 -6.958,-0.6592 -3.49121,-0.6592 -6.98242,-1.9531 l 0,-7.9346 q 3.49121,1.8555 6.73828,2.8076 3.27148,0.9278 6.29882,0.9278 3.07617,0 4.71192,-1.0254 1.63574,-1.0254 1.63574,-2.9297 0,-1.709 -1.12305,-2.6367 -1.09863,-0.9278 -4.41894,-1.6602 l -3.6377,-0.8056 q -5.46875,-1.1719 -8.00781,-3.7354 -2.51465,-2.56347 -2.51465,-6.90917 0,-5.44434 3.51563,-8.37403 3.51562,-2.92968 10.10742,-2.92968 3.00293,0 6.17675,0.46386 3.17383,0.43946 6.56739,1.34278 z"
           style="font-style:normal;font-variant:normal;font-weight:bold;font-stretch:normal;font-size:49.99999237px;font-family:'DejaVu Sans';-inkscape-font-specification:'DejaVu Sans Bold'"
           id="path4613" />
        <path
           d="m 199.92757,1008.7428 q -2.73438,0 -4.12598,0.9277 -1.36719,0.9278 -1.36719,2.7344 0,1.6602 1.09864,2.6123 1.12304,0.9277 3.10058,0.9277 2.46582,0 4.15039,-1.7578 1.68457,-1.7822 1.68457,-4.4433 l 0,-1.001 -4.54101,0 z m 13.35449,-3.2959 0,15.6006 -8.81348,0 0,-4.0527 q -1.75781,2.4902 -3.95507,3.6376 -2.19727,1.1231 -5.34668,1.1231 -4.24805,0 -6.90918,-2.4658 -2.63672,-2.4903 -2.63672,-6.4453 0,-4.8096 3.2959,-7.0557 3.32031,-2.2461 10.40039,-2.2461 l 5.15136,0 0,-0.6836 q 0,-2.0752 -1.63574,-3.02733 -1.63574,-0.97656 -5.10254,-0.97656 -2.80761,0 -5.22461,0.56152 -2.41699,0.56152 -4.49218,1.68457 l 0,-6.66504 q 2.80761,-0.68359 5.63964,-1.02539 2.83204,-0.36621 5.66407,-0.36621 7.39746,0 10.66894,2.92969 3.2959,2.90527 3.2959,9.47265 z"
           style="font-style:normal;font-variant:normal;font-weight:bold;font-stretch:normal;font-size:49.99999237px;font-family:'DejaVu Sans';-inkscape-font-specification:'DejaVu Sans Bold'"
           id="path4615" />
        <path
           d="m 221.46077,983.05921 8.74024,0 0,37.98829 -8.74024,0 0,-37.98829 z"
           style="font-style:normal;font-variant:normal;font-weight:bold;font-stretch:normal;font-size:49.99999237px;font-family:'DejaVu Sans';-inkscape-font-specification:'DejaVu Sans Bold'"
           id="path4617" />
        <path
           d="m 250.90413,1008.7428 q -2.73437,0 -4.12598,0.9277 -1.36718,0.9278 -1.36718,2.7344 0,1.6602 1.09863,2.6123 1.12305,0.9277 3.10059,0.9277 2.46582,0 4.15039,-1.7578 1.68457,-1.7822 1.68457,-4.4433 l 0,-1.001 -4.54102,0 z m 13.35449,-3.2959 0,15.6006 -8.81347,0 0,-4.0527 q -1.75782,2.4902 -3.95508,3.6376 -2.19727,1.1231 -5.34668,1.1231 -4.24805,0 -6.90918,-2.4658 -2.63672,-2.4903 -2.63672,-6.4453 0,-4.8096 3.2959,-7.0557 3.32031,-2.2461 10.40039,-2.2461 l 5.15137,0 0,-0.6836 q 0,-2.0752 -1.63575,-3.02733 -1.63574,-0.97656 -5.10253,-0.97656 -2.80762,0 -5.22461,0.56152 -2.417,0.56152 -4.49219,1.68457 l 0,-6.66504 q 2.80762,-0.68359 5.63965,-1.02539 2.83203,-0.36621 5.66406,-0.36621 7.39746,0 10.66894,2.92969 3.2959,2.90527 3.2959,9.47265 z"
           style="font-style:normal;font-variant:normal;font-weight:bold;font-stretch:normal;font-size:49.99999237px;font-family:'DejaVu Sans';-inkscape-font-specification:'DejaVu Sans Bold'"
           id="path4619" />
        <path
           d="m 304.81036,998.70862 q 2.22168,0 3.36914,-0.97656 1.14747,-0.97656 1.14747,-2.88086 0,-1.87988 -1.14747,-2.85644 -1.14746,-1.00098 -3.36914,-1.00098 l -5.20019,0 0,7.71484 5.20019,0 z m 0.31739,15.94238 q 2.83203,0 4.24804,-1.1963 1.44043,-1.1963 1.44043,-3.6133 0,-2.3681 -1.41601,-3.54 -1.41602,-1.1963 -4.27246,-1.1963 l -5.51758,0 0,9.5459 5.51758,0 z m 8.74023,-13.1103 q 3.02734,0.8789 4.6875,3.247 1.66016,2.3682 1.66016,5.8106 0,5.2734 -3.56446,7.8613 -3.56445,2.5879 -10.83984,2.5879 l -15.60058,0 0,-36.4502 14.11132,0 q 7.59278,0 10.98633,2.29492 3.41797,2.29492 3.41797,7.34863 0,2.66113 -1.24512,4.54101 -1.24512,1.85544 -3.61328,2.75884 z"
           style="font-style:normal;font-variant:normal;font-weight:bold;font-stretch:normal;font-size:49.99999237px;font-family:'DejaVu Sans';-inkscape-font-specification:'DejaVu Sans Bold'"
           id="path4621" />
        <path
           d="m 327.90607,993.70374 8.74023,0 0,27.34376 -8.74023,0 0,-27.34376 z m 0,-10.64453 8.74023,0 0,7.12891 -8.74023,0 0,-7.12891 z"
           style="font-style:normal;font-variant:normal;font-weight:bold;font-stretch:normal;font-size:49.99999237px;font-family:'DejaVu Sans';-inkscape-font-specification:'DejaVu Sans Bold'"
           id="path4623" />
        <path
           d="m 370.43536,998.24475 q 1.66016,-2.53906 3.93067,-3.85742 2.29492,-1.34277 5.02929,-1.34277 4.71192,0 7.17774,2.90527 2.46582,2.90528 2.46582,8.44727 l 0,16.6504 -8.78907,0 0,-14.2578 q 0.0244,-0.3174 0.0244,-0.6592 0.0244,-0.3418 0.0244,-0.9766 0,-2.9052 -0.85449,-4.1992 -0.85449,-1.31834 -2.75879,-1.31834 -2.49023,0 -3.85742,2.05074 -1.34277,2.0508 -1.3916,5.9327 l 0,13.4277 -8.78906,0 0,-14.2578 q 0,-4.541 -0.78125,-5.835 -0.78125,-1.31834 -2.7832,-1.31834 -2.51465,0 -3.88184,2.07524 -1.36719,2.0507 -1.36719,5.8837 l 0,13.4522 -8.78906,0 0,-27.34376 8.78906,0 0,4.00391 q 1.61133,-2.31934 3.68653,-3.49122 2.09961,-1.17187 4.61425,-1.17187 2.83203,0 5.00489,1.36719 2.17285,1.36718 3.29589,3.833 z"
           style="font-style:normal;font-variant:normal;font-weight:bold;font-stretch:normal;font-size:49.99999237px;font-family:'DejaVu Sans';-inkscape-font-specification:'DejaVu Sans Bold'"
           id="path4625" />
      </g>
    </g>
    <g
       transform="matrix(0.76823822,0,0,0.76823822,728.88487,270.72115)"
       id="g5128">
      <path
         d="m 46.506692,967.99429 c 1.050891,-1.72767 -0.709874,-1.88005 -1.951456,-0.7771 -5.635839,4.99783 -13.057498,14.72859 -16.261672,19.07825 -2.210351,2.99706 -2.356502,4.29222 1.80113,1.84605 19.418521,31.78851 75.935586,27.39781 75.195096,-4.29105 l -3.18886,-9.61004 c -14.041582,3.78354 -44.584239,0.91659 -55.594238,-6.24611"
         style="fill:#2471a3;fill-opacity:1;fill-rule:evenodd;stroke:none"
         id="path25908"
         inkscape:connector-curvature="0" />
      <path
         d="m 36.203369,995.87852 c 14.428528,14.40628 38.100722,17.35998 53.642777,10.49728 l 0.03619,-2.4602 c -25.350837,0.6259 -34.779628,0.9693 -53.678967,-8.03708"
         style="fill:#1c587f;fill-opacity:1;fill-rule:evenodd;stroke:none"
         id="path25912"
         inkscape:connector-curvature="0" />
      <path
         d="m 71.52236,1009.9026 c 18.028004,0.116 34.1644,-9.0228 33.76771,-26.05224 l -3.18886,-9.61004 c -8.366768,2.25512 -22.593469,2.14729 -35.055229,0.17816 -0.598521,0.62004 -1.16642,1.26939 -1.707872,1.94686 -1.993214,2.50829 -2.648803,5.78782 0.630534,4.98962 -4.085252,7.8894 -4.735274,16.6649 -0.563723,24.67504 1.288908,2.4743 3.254283,3.7507 4.77564,1.3913 0.470465,0.8216 0.924227,1.6526 1.3418,2.4813"
         style="fill:#1c587f;fill-opacity:1;fill-rule:evenodd;stroke:none"
         id="path25916"
         inkscape:connector-curvature="0" />
      <path
         d="m 32.383692,968.70842 c -2.435841,0.98339 -2.338407,3.07793 0.945106,4.4446 -4.114483,1.02793 -2.728141,2.55283 -0.563723,3.57021 4.058806,1.90349 4.763112,1.92459 7.18921,2.21058 l 5.175117,-7.98434 c -0.935363,-0.45126 -6.578162,-5.38345 -9.776768,-5.58036 -8.178857,-0.504 -13.688032,1.61164 -2.968942,3.33931"
         style="fill:#ffc88a;fill-opacity:1;fill-rule:evenodd;stroke:none"
         id="path25928"
         inkscape:connector-curvature="0" />
      <path
         d="m 46.003801,968.81147 c -1.073162,7.90346 -7.719527,12.71962 -14.665152,18.17808 5.493864,-5.84526 10.568764,-11.7667 14.665152,-18.17808"
         style="fill:#1c587f;fill-opacity:1;fill-rule:evenodd;stroke:none"
         id="path25932"
         inkscape:connector-curvature="0" />
      <path
         d="m 89.008914,960.09753 c -9.080814,3.15881 -17.109344,6.89897 -22.317867,13.45335 -1.995998,2.50946 -2.650195,5.78548 0.627751,4.9908 -4.083861,7.89056 -4.735274,16.66372 -0.562332,24.67382 1.287516,2.472 3.255675,3.7484 4.772856,1.3901 3.33223,5.7961 5.719354,12.0012 0.949282,15.4612 -4.900911,3.5491 -7.194777,4.2629 -3.257067,6.6177 9.477508,5.6694 21.285071,6.7032 32.694553,5.4748 11.81173,-1.2717 19.0942,-3.882 28.36431,-9.644 -0.46907,3.9629 2.62097,2.3841 6.41531,-0.7537 7.17251,-5.9237 10.44489,-9.3826 12.7485,-17.333 0.515,3.7648 2.79634,2.5025 3.98364,0.2427 8.18025,-15.58191 -8.23036,-36.91762 -18.51378,-49.0043 -4.34136,13.15798 -38.450092,15.30643 -45.905156,4.43053"
         style="fill:#dededd;fill-opacity:1;fill-rule:evenodd;stroke:none"
         id="path25996"
         inkscape:connector-curvature="0" />
      <path
         d="m 67.560018,1023.7927 c -0.725185,0.9306 -0.328491,1.7019 1.661939,2.8916 9.477508,5.6706 21.285071,6.7044 32.694553,5.476 11.81034,-1.2717 19.09281,-3.8832 28.36431,-9.6452 -0.46907,3.9629 2.62097,2.3841 6.41531,-0.7525 7.17251,-5.9249 10.44489,-9.3826 12.7485,-17.3341 0.515,3.7647 2.79634,2.5024 3.98364,0.2438 5.51892,-10.5126 -0.15589,-23.64362 -7.59008,-34.78794 2.03219,6.60009 3.59391,12.84855 4.50422,19.58577 0.412,3.06153 0.32431,12.47347 -3.63706,4.85132 -3.52292,8.74975 -6.12997,14.09685 -13.72005,20.77315 -2.03218,1.7886 -5.32405,1.9163 -5.022,-1.9774 -16.09325,16.8419 -39.357619,18.6727 -60.403282,10.6755"
         style="fill:#afafad;fill-opacity:1;fill-rule:evenodd;stroke:none"
         id="path26000"
         inkscape:connector-curvature="0" />
      <path
         d="m 92.079465,1004.3259 c -1.081513,-13.8671 0.633319,-15.97688 8.064725,-25.07002 -11.850717,8.61024 -10.657851,15.0474 -8.064725,25.07002"
         style="fill:#dededd;fill-opacity:1;fill-rule:evenodd;stroke:none"
         id="path26008"
         inkscape:connector-curvature="0" />
      <path
         d="m 89.800631,1016.206 c 12.741539,-7.2612 5.617744,-23.29195 14.049929,-33.46576 -11.19234,10.38362 -3.48256,23.29316 -14.049929,33.46576"
         style="fill:#dededd;fill-opacity:1;fill-rule:evenodd;stroke:none"
         id="path26012"
         inkscape:connector-curvature="0" />
      <path
         d="m 118.43469,979.72784 c 3.92518,7.62333 2.84506,16.30155 0.83515,22.67776 6.37494,-8.61492 3.44219,-17.54631 -0.83515,-22.67776"
         style="fill:#dededd;fill-opacity:1;fill-rule:evenodd;stroke:none"
         id="path26016"
         inkscape:connector-curvature="0" />
      <path
         d="m 79.227412,992.68506 c 0.631927,-6.03396 6.290036,-11.35178 11.530573,-14.92082 -10.339099,3.80346 -12.559194,10.40355 -11.530573,14.92082"
         style="fill:#dededd;fill-opacity:1;fill-rule:evenodd;stroke:none"
         id="path26020"
         inkscape:connector-curvature="0" />
      <path
         d="m 144.57518,989.95511 c -14.21417,7.00212 -23.38407,22.32029 -22.69925,32.27839 0.1726,2.5036 0.6709,4.4704 1.42671,5.9801 2.09064,4.1785 4.97329,5.4584 8.07168,1.7956 6.17033,-1.4815 15.7745,-4.2793 19.79294,-7.88 12.29473,-11.0142 1.64106,-22.59101 -6.59208,-32.17409"
         style="fill:#2471a3;fill-opacity:1;fill-rule:evenodd;stroke:none"
         id="path26116"
         inkscape:connector-curvature="0" />
      <path
         d="m 123.27519,1028.1548 0.0278,0.059 c 2.09065,4.1785 4.9719,5.4585 8.07029,1.7957 6.17172,-1.4816 15.77589,-4.2782 19.79433,-7.8801 2.79496,-2.5036 4.39983,-5.0376 5.12223,-7.5729 -5.09578,6.2063 -11.22853,11.8089 -21.62331,10.5501 -4.36642,3.8468 -7.38268,4.9544 -11.39138,3.0486"
         style="fill:#1c587f;fill-opacity:1;fill-rule:evenodd;stroke:none"
         id="path26120"
         inkscape:connector-curvature="0" />
      <path
         d="m 143.96622,993.11546 c -12.26829,6.04217 -20.18407,19.26574 -19.59251,27.85964 0.53032,7.7018 3.20417,7.3608 6.52805,3.4752 3.76651,-4.4012 14.10004,-20.4648 13.06446,-31.33484"
         style="fill:#1c587f;fill-opacity:1;fill-rule:evenodd;stroke:none"
         id="path26124"
         inkscape:connector-curvature="0" />
      <path
         d="m 147.52212,998.55925 c -0.60548,8.91385 -7.43419,22.41635 -15.53231,29.01995 6.40139,-6.041 13.73396,-23.4677 15.53231,-29.01995"
         style="fill:#1c587f;fill-opacity:1;fill-rule:evenodd;stroke:none"
         id="path26128"
         inkscape:connector-curvature="0" />
      <path
         d="m 143.9452,996.6099 c -2.11013,-2.59151 -6.49465,-6.60126 -11.32318,-7.00329 -2.49708,-0.20629 -4.62949,0.36452 -1.41557,2.18948 -5.92953,1.3444 -6.21627,3.17053 0,3.72024 -4.45828,1.65032 -7.27412,4.31333 -0.74606,5.09977 4.51257,0.5415 6.56424,3.3851 10.77059,6.1536 1.14275,-3.4964 2.24375,-6.5814 2.71422,-10.1598"
         style="fill:#ffc88a;fill-opacity:1;fill-rule:evenodd;stroke:none"
         id="path26132"
         inkscape:connector-curvature="0" />
      <path
         d="m 135.35515,931.37308 2.76711,0.44774 c 0.59296,4.58291 1.48935,13.82608 5.87943,16.07534 2.25489,1.15686 4.36085,-0.13597 6.54893,0.61418 4.7478,1.62687 -0.93815,7.46626 -4.43323,7.57761 -0.51501,5.4737 -10.49221,4.20432 -11.39973,2.49189 L 89.0533,958.22586 c -4.444365,1.26587 -12.381029,-0.73842 -14.340837,-4.04726 -1.060635,-1.78979 -0.226881,-4.41412 1.103784,-3.82573 7.777987,3.4366 7.847582,-13.99603 7.385468,-20.03937 l 52.153435,1.05958 z"
         style="fill:#dededd;fill-opacity:1;fill-rule:evenodd;stroke:none"
         id="path26136"
         inkscape:connector-curvature="0" />
      <path
         d="m 134.22284,930.73433 4.03793,1.43934 c 0.10717,0.73842 0.1712,1.5835 0.23801,2.48016 -16.54562,0.74311 -36.15622,1.28696 -55.271306,-0.0867 0.04315,-1.81792 0.04315,-3.38736 0.105785,-4.3813 l 50.889581,0.54854 z"
         style="fill:#afafad;fill-opacity:1;fill-rule:evenodd;stroke:none"
         id="path26140"
         inkscape:connector-curvature="0" />
      <path
         d="m 90.542241,958.23633 -1.489343,-0.0105 c -4.235578,1.20726 -8.593645,1.78862 -10.688468,-1.02324 4.661503,-1.02559 5.138928,-2.2141 7.764068,-8.72276 l 4.413743,9.75655 z"
         style="fill:#afafad;fill-opacity:1;fill-rule:evenodd;stroke:none"
         id="path26144"
         inkscape:connector-curvature="0" />
      <path
         d="m 151.40012,952.90238 c -1.26942,1.65969 -3.54519,3.1295 -5.28229,3.18576 -0.0752,6.58485 -11.66281,5.31078 -12.57173,3.60069 l 0.20044,-11.44789 0.95207,-6.82396 c 1.96815,9.2338 8.9611,14.65944 16.70151,11.4854"
         style="fill:#afafad;fill-opacity:1;fill-rule:evenodd;stroke:none"
         id="path26148"
         inkscape:connector-curvature="0" />
      <path
         d="m 134.10328,959.53314 -1.35711,6.76301 -6.9679,4.44225 -12.92944,2.18831 -19.705253,-2.18831 c -0.275598,-2.34068 -5.485513,-3.19748 -5.724922,-5.49948 -1.031404,-9.90424 -1.707872,-19.53068 -1.817833,-29.46539 -0.107177,-9.6956 6.63523,-13.24003 15.316568,-14.2199 18.39268,-2.08048 32.38693,1.20022 33.76075,9.35217 1.37381,8.15664 0.49552,17.37402 -0.57486,28.62734"
         style="fill:#ffc88a;fill-opacity:1;fill-rule:evenodd;stroke:none"
         id="path26152"
         inkscape:connector-curvature="0" />
      <path
         d="m 126.07181,963.91716 c -4.14371,-3.81987 1.09682,-14.56215 7.9478,-10.76807 -6.25802,-0.68216 -9.86585,4.70715 -7.9478,10.76807"
         style="fill:#ffa05d;fill-opacity:1;fill-rule:evenodd;stroke:none"
         id="path26156"
         inkscape:connector-curvature="0" />
      <path
         d="m 91.618743,961.45388 c 3.323878,-2.58565 0.268638,-10.74815 -5.041494,-8.31721 4.646192,-0.17582 6.896909,3.96872 5.041494,8.31721"
         style="fill:#ffa05d;fill-opacity:1;fill-rule:evenodd;stroke:none"
         id="path26160"
         inkscape:connector-curvature="0" />
      <path
         d="m 85.621564,934.65008 c 0.412005,-8.85169 6.959544,-12.15584 15.295686,-13.09703 18.39269,-2.0793 32.38694,1.2014 33.76075,9.35335 0.21575,1.27407 0.37582,2.57158 0.48717,3.90191 -15.10082,0.64466 -32.49968,1.02911 -49.543606,-0.15823"
         style="fill:#f19764;fill-opacity:1;fill-rule:evenodd;stroke:none"
         id="path26164"
         inkscape:connector-curvature="0" />
      <path
         d="m 130.34415,959.168 c 1.6522,0.24614 2.73093,0.0738 4.20356,-0.75132 1.54781,-0.87086 3.36564,-0.82632 3.45611,1.69134 0.34659,9.76359 -18.01408,17.80301 -29.70194,13.57408 -11.004431,2.445 -26.205468,-4.52665 -30.460534,-12.82862 -2.022443,-3.94646 0.431492,-5.5241 4.799302,-3.4026 1.862374,0.9072 3.315527,1.09005 6.007479,0.86618 8.83027,-0.73725 10.486642,2.14259 19.095603,6.6036 3.4227,-7.05135 17.31952,-6.54969 22.60042,-5.75266"
         style="fill:#afafad;fill-opacity:1;fill-rule:evenodd;stroke:none"
         id="path26168"
         inkscape:connector-curvature="0" />
      <path
         d="m 107.05208,970.85467 c 2.3217,-0.0703 4.28012,1.29634 4.37338,3.05449 0.0919,1.75698 -1.71483,3.23968 -4.03654,3.30883 -2.31892,0.0738 -4.28012,-1.29634 -4.37198,-3.05566 -0.0933,-1.75697 1.71344,-3.23851 4.03514,-3.30766"
         style="fill:#ae364d;fill-opacity:1;fill-rule:evenodd;stroke:none"
         id="path26172"
         inkscape:connector-curvature="0" />
      <path
         d="m 131.21881,957.69041 c 1.71483,0.25083 2.83532,0.0774 4.36503,-0.74897 1.60904,-0.87087 3.49369,-0.8275 3.58834,1.68899 0.3605,9.76593 -18.70447,17.80653 -30.84192,13.57642 -11.42618,2.44383 -27.210427,-4.52664 -31.628346,-12.83096 -2.101782,-3.94294 0.446803,-5.52059 4.983034,-3.39792 1.93197,0.90486 3.442191,1.09006 6.238536,0.86384 9.167112,-0.73842 10.886119,2.1426 19.827746,6.6036 3.55215,-7.05017 17.98207,-6.55086 23.46758,-5.755"
         style="fill:#dededd;fill-opacity:1;fill-rule:evenodd;stroke:none"
         id="path26176"
         inkscape:connector-curvature="0" />
      <path
         d="m 104.87109,928.11202 c -2.99121,14.37579 -3.12901,25.52245 -0.69595,39.92168 l 9.50256,-9.42953 -8.0174,4.27699 c -1.20122,-11.94838 -1.23045,-22.84655 -0.78921,-34.76914"
         style="fill:#ffa05d;fill-opacity:1;fill-rule:evenodd;stroke:none"
         id="path26180"
         inkscape:connector-curvature="0" />
      <path
         d="m 61.303943,929.92971 c 34.647396,6.5239 76.909927,2.76381 100.253627,1.8988 l -25.76423,-4.95915 c -2.93971,-12.58482 -6.87046,-24.63048 -11.15197,-36.70896 -1.78165,-5.02713 -4.77982,-11.39983 -2.68778,-14.50941 2.72953,-4.05429 0.28256,-4.21018 -3.88203,-2.56807 -18.392689,7.24826 -24.382073,32.71445 -32.051491,53.4606 l -24.716126,3.38619 z"
         style="fill:#2471a3;fill-opacity:1;fill-rule:evenodd;stroke:none"
         id="path26184"
         inkscape:connector-curvature="0" />
      <path
         d="m 139.52407,932.88058 c 8.3431,-0.39031 15.85245,-0.8193 22.03392,-1.05137 l -25.76424,-4.96032 c -2.93971,-12.58366 -6.87185,-24.63049 -11.15197,-36.70779 -1.13858,-3.20569 -2.76851,-6.95992 -3.25846,-10.06833 -1.52831,4.6966 -0.90474,8.6372 0.32988,13.65964 2.73371,11.12908 4.02819,22.56173 5.98382,33.82091 4.52927,1.58936 8.00487,3.12833 11.82705,5.30726"
         style="fill:#1c587f;fill-opacity:1;fill-rule:evenodd;stroke:none"
         id="path26188"
         inkscape:connector-curvature="0" />
      <path
         d="m 122.44798,872.17627 c -0.84071,-0.24145 -2.41914,0.13245 -4.37755,0.90603 -16.64584,6.55789 -23.133529,28.04129 -29.898207,47.44304 6.29978,4.95798 9.524833,0.88728 10.457412,-4.76927 1.972335,-11.95306 1.616005,-30.57771 18.062805,-39.38017 2.73371,-1.46161 5.06098,-2.74857 5.75554,-4.19963"
         style="fill:#2c89c6;fill-opacity:1;fill-rule:evenodd;stroke:none"
         id="path26192"
         inkscape:connector-curvature="0" />
      <path
         d="m 81.327525,927.18494 -15.549014,2.13088 c 12.268285,2.39108 26.831828,3.71438 37.230779,3.25257 5.87107,-0.26021 4.38869,-2.44031 -0.0445,-2.44617 -7.556675,-0.0129 -14.453583,-1.29634 -21.637225,-2.93728"
         style="fill:#2c89c6;fill-opacity:1;fill-rule:evenodd;stroke:none"
         id="path26196"
         inkscape:connector-curvature="0" />
      <path
         d="m 95.42547,941.67695 c 1.31257,-0.0422 2.419138,0.81578 2.47203,1.9199 0.0515,1.10646 -0.97016,2.03711 -2.281338,2.08282 -1.311179,0.0434 -2.417746,-0.81696 -2.470639,-1.92342 -0.05289,-1.10411 0.967377,-2.03476 2.279947,-2.0793"
         style="fill:#201b16;fill-opacity:1;fill-rule:evenodd;stroke:none"
         id="path26204"
         inkscape:connector-curvature="0" />
      <path
         d="m 117.49001,944.72169 c -1.18173,5.07402 6.98877,10.02496 10.49499,3.78353 -4.92179,3.32525 -9.6501,-1.17327 -10.49499,-3.78353"
         style="fill:#ffa05d;fill-opacity:1;fill-rule:evenodd;stroke:none"
         id="path26208"
         inkscape:connector-curvature="0" />
      <path
         d="m 97.687311,945.38791 c 0.927011,2.78139 -3.36146,5.84643 -5.642799,2.5036 2.917441,1.6679 5.310133,-1.01738 5.642799,-2.5036"
         style="fill:#ffa05d;fill-opacity:1;fill-rule:evenodd;stroke:none"
         id="path26212"
         inkscape:connector-curvature="0" />
      <path
         d="m 92.806732,936.11755 c 1.050891,-1.04786 2.270203,-1.37487 4.057414,-1.65031 1.892997,-0.29889 2.625141,-0.75132 2.505436,-1.62453 -0.212962,-1.5753 -1.526924,-1.90935 -2.964765,-1.71244 -2.747629,0.38328 -5.560677,1.60578 -6.548932,3.27953 -0.791996,1.33737 -0.300652,2.2141 0.321531,2.55049 0.785037,0.42313 1.421139,0.35749 2.629316,-0.84274"
         style="fill:#dededd;fill-opacity:1;fill-rule:evenodd;stroke:none"
         id="path26216"
         inkscape:connector-curvature="0" />
      <path
         d="m 133.04834,939.62353 c 6.56424,-1.82379 10.32657,-2.2434 10.92927,1.73939 0.95067,6.29066 -6.4348,3.86559 -11.02392,3.09083 l 0.0947,-4.83022 z"
         style="fill:#ffc88a;fill-opacity:1;fill-rule:evenodd;stroke:none"
         id="path26220"
         inkscape:connector-curvature="0" />
      <path
         d="m 87.363544,941.00632 c -5.211307,-1.06544 -8.148235,-1.19554 -8.322223,1.91638 -0.271423,4.91109 5.260023,2.65129 8.750931,1.81324 l -0.428708,-3.72962 z"
         style="fill:#ffc88a;fill-opacity:1;fill-rule:evenodd;stroke:none"
         id="path26224"
         inkscape:connector-curvature="0" />
      <path
         d="m 135.14164,942.73925 c 1.73571,-1.80738 5.1445,-4.0203 7.53858,-0.70795 -3.25846,-0.74897 -4.40678,-0.43485 -7.53858,0.70795"
         style="fill:#ffa05d;fill-opacity:1;fill-rule:evenodd;stroke:none"
         id="path26228"
         inkscape:connector-curvature="0" />
      <path
         d="m 84.566776,943.71791 c -1.199825,-1.70658 -3.454718,-3.73079 -4.667071,-0.29771 1.93893,-0.92362 2.664114,-0.67396 4.667071,0.29771"
         style="fill:#ffa05d;fill-opacity:1;fill-rule:evenodd;stroke:none"
         id="path26232"
         inkscape:connector-curvature="0" />
      <path
         d="m 136.30861,937.85506 -1.01609,-2.88336 c -1.68978,1.7347 -2.35094,2.48953 -3.31971,4.28636 -0.88247,1.63274 -1.16085,2.89626 -0.0167,3.48348 3.96416,2.03828 3.73867,-3.21741 4.3525,-4.88648"
         style="fill:#dededd;fill-opacity:1;fill-rule:evenodd;stroke:none"
         id="path26236"
         inkscape:connector-curvature="0" />
      <path
         d="m 84.629277,939.58686 0.541453,-3.05097 c 0.750238,1.1381 1.391908,2.20237 1.863766,3.41198 0.427316,1.09708 0.601304,1.95857 0.185123,2.40749 -1.444801,1.55303 -2.263243,-1.63625 -2.590342,-2.7685"
         style="fill:#dededd;fill-opacity:1;fill-rule:evenodd;stroke:none"
         id="path26240"
         inkscape:connector-curvature="0" />
      <path
         d="m 126.57207,936.95321 c -1.45315,-1.58702 -3.20974,-2.13322 -5.80008,-2.6466 -2.74485,-0.54034 -3.77904,-1.24594 -3.53545,-2.51415 0.44123,-2.2938 2.3913,-2.70989 4.47498,-2.33482 3.98643,0.71732 8.00348,2.66535 9.31187,5.16544 1.05229,2.00546 0.26447,3.25843 -0.67646,3.71321 -1.17895,0.5755 -2.10457,0.44422 -3.77486,-1.38308"
         style="fill:#dededd;fill-opacity:1;fill-rule:evenodd;stroke:none"
         id="path26244"
         inkscape:connector-curvature="0" />
      <path
         d="m 84.874666,926.89866 c -0.732144,-0.10901 -1.222096,-0.69974 -1.091257,-1.31627 0.129448,-0.61769 0.828186,-1.0291 1.56033,-0.92009 8.734229,1.32447 17.034181,2.00546 25.336921,2.05 8.30552,0.0504 16.62635,-0.53331 25.40373,-1.73705 0.73492,-0.0996 1.42809,0.32467 1.5478,0.94236 0.11692,0.61887 -0.38556,1.20258 -1.12049,1.30338 -8.91378,1.22132 -17.38076,1.81441 -25.84635,1.76518 -8.4642,-0.0469 -16.914481,-0.74194 -25.790684,-2.08751"
         style="fill:#cda35a;fill-opacity:1;fill-rule:nonzero;stroke:none"
         id="path26248"
         inkscape:connector-curvature="0" />
      <path
         d="m 87.161572,924.92653 c 0.559547,0.0832 1.116311,0.15941 1.674466,0.23208 0.893606,0.63293 1.309787,1.22718 1.78582,2.52704 -0.534493,-0.0645 -1.066203,-0.13245 -1.604871,-0.2016 -0.942323,-0.65989 -1.301435,-1.34323 -1.855415,-2.55752"
         style="fill:#9f7333;fill-opacity:1;fill-rule:nonzero;stroke:none"
         id="path26252"
         inkscape:connector-curvature="0" />
      <path
         d="m 95.08836,925.88915 c 0.560939,0.0563 1.124662,0.10783 1.685602,0.15823 0.835145,0.60598 1.242974,1.19437 1.69952,2.42625 -0.516398,-0.0387 -1.03558,-0.0832 -1.554762,-0.12776 -0.932579,-0.64583 -1.302827,-1.30455 -1.83036,-2.45672"
         style="fill:#9f7333;fill-opacity:1;fill-rule:nonzero;stroke:none"
         id="path26256"
         inkscape:connector-curvature="0" />
      <path
         d="m 102.43665,926.45917 c 0.58878,0.0317 1.17895,0.0633 1.76772,0.0891 0.72936,0.57081 1.11075,1.16741 1.54224,2.33716 -0.4649,-0.0152 -0.93119,-0.034 -1.39887,-0.0539 -1.00357,-0.64583 -1.39887,-1.27525 -1.91109,-2.37233"
         style="fill:#9f7333;fill-opacity:1;fill-rule:nonzero;stroke:none"
         id="path26260"
         inkscape:connector-curvature="0" />
      <path
         d="m 110.13557,926.71103 0.54563,10e-4 c 0.37581,0.005 0.75163,0.005 1.12744,0.005 0.75581,0.5673 1.14833,1.14162 1.57565,2.26332 -0.48717,0.006 -0.97295,0.008 -1.46012,0.008 -0.91587,-0.61535 -1.30143,-1.23422 -1.7886,-2.27739"
         style="fill:#9f7333;fill-opacity:1;fill-rule:nonzero;stroke:none"
         id="path26264"
         inkscape:connector-curvature="0" />
      <path
         d="m 117.49892,926.6137 c 0.51501,-0.0199 1.0314,-0.0387 1.5478,-0.0633 0.80731,0.57433 1.2221,1.1217 1.65081,2.19651 -0.51501,0.027 -1.03002,0.0504 -1.54363,0.075 -0.81844,-0.59073 -1.1873,-1.20374 -1.65498,-2.20823"
         style="fill:#9f7333;fill-opacity:1;fill-rule:nonzero;stroke:none"
         id="path26268"
         inkscape:connector-curvature="0" />
      <path
         d="m 125.17265,926.16727 c 0.50248,-0.0387 1.00635,-0.082 1.51161,-0.12541 0.79617,0.56377 1.21096,1.09825 1.63132,2.13673 -0.50526,0.0457 -1.01331,0.0938 -1.51718,0.13714 -0.80174,-0.57785 -1.1706,-1.18031 -1.62575,-2.14846"
         style="fill:#9f7333;fill-opacity:1;fill-rule:nonzero;stroke:none"
         id="path26272"
         inkscape:connector-curvature="0" />
      <path
         d="m 132.44216,925.44283 c 0.4301,-0.0527 0.8602,-0.10314 1.29308,-0.15941 0.91588,0.59309 1.38217,1.09592 1.81505,2.06876 -0.55398,0.0715 -1.10796,0.14299 -1.65915,0.21098 -0.6709,-0.55558 -1.00774,-1.16741 -1.44898,-2.12033"
         style="fill:#9f7333;fill-opacity:1;fill-rule:nonzero;stroke:none"
         id="path26276"
         inkscape:connector-curvature="0" />
      <path
         d="m 119.74435,960.48901 c 2.96059,3.92887 3.12484,7.18731 1.98208,10.25 4.35528,-3.62764 1.59234,-8.43559 -1.98208,-10.25"
         style="fill:#cfcfce;fill-opacity:1;fill-rule:evenodd;stroke:none"
         id="path26280"
         inkscape:connector-curvature="0" />
      <path
         d="m 123.43484,960.08721 c 3.01209,1.9281 4.04071,3.98748 4.17433,6.18282 1.76773,-3.20452 -1.36685,-5.73391 -4.17433,-6.18282"
         style="fill:#cfcfce;fill-opacity:1;fill-rule:evenodd;stroke:none"
         id="path26284"
         inkscape:connector-curvature="0" />
      <path
         d="m 94.383486,959.76784 c -2.858981,2.08868 -3.72614,4.19846 -3.68995,6.39849 -2.011309,-3.10138 0.922835,-5.79838 3.68995,-6.39849"
         style="fill:#cfcfce;fill-opacity:1;fill-rule:evenodd;stroke:none"
         id="path26288"
         inkscape:connector-curvature="0" />
      <path
         d="m 119.97445,942.10613 c 1.31257,-0.0422 2.41914,0.81578 2.47203,1.9199 0.0515,1.10646 -0.97016,2.03711 -2.28134,2.08282 -1.31118,0.0434 -2.41774,-0.81696 -2.47064,-1.92342 -0.0529,-1.10411 0.96738,-2.03476 2.27995,-2.0793"
         style="fill:#201b16;fill-opacity:1;fill-rule:evenodd;stroke:none"
         id="path26204-6"
         inkscape:connector-curvature="0" />
    </g>
  </g>
</svg>
