<?xml version="1.0" encoding="UTF-8" standalone="no"?>
<!-- Created with Inkscape (http://www.inkscape.org/) -->

<svg
   xmlns:dc="http://purl.org/dc/elements/1.1/"
   xmlns:cc="http://creativecommons.org/ns#"
   xmlns:rdf="http://www.w3.org/1999/02/22-rdf-syntax-ns#"
   xmlns:svg="http://www.w3.org/2000/svg"
   xmlns="http://www.w3.org/2000/svg"
   xmlns:sodipodi="http://sodipodi.sourceforge.net/DTD/sodipodi-0.dtd"
   xmlns:inkscape="http://www.inkscape.org/namespaces/inkscape"
   width="200"
   height="200"
   viewBox="0 0 199.99999 199.99999"
   id="svg2"
   version="1.1"
   inkscape:version="0.91 r13725"
   sodipodi:docname="logo.svg">
  <defs
     id="defs4" />
  <sodipodi:namedview
     id="base"
     pagecolor="#ffffff"
     bordercolor="#666666"
     borderopacity="1.0"
     inkscape:pageopacity="0.0"
     inkscape:pageshadow="2"
     inkscape:zoom="2.8"
     inkscape:cx="63.301301"
     inkscape:cy="96.766114"
     inkscape:document-units="px"
     inkscape:current-layer="layer1"
     showgrid="false"
     inkscape:window-width="1600"
     inkscape:window-height="873"
     inkscape:window-x="0"
     inkscape:window-y="27"
     inkscape:window-maximized="1"
     units="px" />
  <metadata
     id="metadata7">
    <rdf:RDF>
      <cc:Work
         rdf:about="">
        <dc:format>image/svg+xml</dc:format>
        <dc:type
           rdf:resource="http://purl.org/dc/dcmitype/StillImage" />
        <dc:title />
      </cc:Work>
    </rdf:RDF>
  </metadata>
  <g
     inkscape:label="Capa 1"
     inkscape:groupmode="layer"
     id="layer1"
     transform="translate(0,-852.36225)">
    <path
       inkscape:connector-curvature="0"
       id="path4198"
       d="m 160.57144,620.21939 0,-128 128,0 128,0 0,128 0,128 -128,0 -128,0 0,-128 z"
       style="fill:#fefefd" />
    <g
       id="g4286"
       transform="matrix(0.66894231,0,0,0.66894231,-365.35493,352.13203)">
      <path
         d="m 623.50956,925.68176 c 1.8059,-2.96889 -1.21987,-3.23075 -3.35345,-1.3354 -9.68485,8.58847 -22.43851,25.31018 -27.94469,32.78481 -3.79835,5.15026 -4.0495,7.37591 3.09513,3.17232 33.36954,54.62661 130.49065,47.08141 129.21816,-7.37391 l -5.47986,-16.51426 c -24.1296,6.50178 -76.61528,1.5751 -95.53529,-10.73356"
         style="fill:#2471a3;fill-opacity:1;fill-rule:evenodd;stroke:none"
         id="path25908"
         inkscape:connector-curvature="0" />
      <path
         d="m 605.80394,973.5991 c 24.79454,24.75631 65.47375,29.8321 92.18182,18.03893 l 0.0622,-4.2277 c -43.56386,1.07557 -59.76666,1.66568 -92.24401,-13.81123"
         style="fill:#1c587f;fill-opacity:1;fill-rule:evenodd;stroke:none"
         id="path25912"
         inkscape:connector-curvature="0" />
      <path
         d="m 666.49745,997.69862 c 30.98002,0.19934 58.70943,-15.50513 58.02774,-44.76917 l -5.47986,-16.51427 c -14.37778,3.87529 -38.82549,3.68999 -60.24026,0.30616 -1.02852,1.0655 -2.00442,2.18137 -2.93487,3.34556 -3.42522,4.31034 -4.55181,9.94601 1.08353,8.57435 -7.02025,13.55745 -8.13728,28.63761 -0.96872,42.40254 2.21491,4.25194 5.59228,6.44535 8.20664,2.39087 0.80847,1.41187 1.58823,2.83989 2.3058,4.26396"
         style="fill:#1c587f;fill-opacity:1;fill-rule:evenodd;stroke:none"
         id="path25916"
         inkscape:connector-curvature="0" />
      <path
         d="m 599.24006,926.90895 c -4.18585,1.6899 -4.01841,5.28923 1.6241,7.63777 -7.07048,1.76644 -4.68814,4.38688 -0.96872,6.13519 6.97481,3.27103 8.18512,3.30729 12.35422,3.79875 l 8.89312,-13.7206 c -1.60737,-0.77546 -11.30417,-9.25113 -16.80078,-9.58951 -14.05486,-0.86609 -23.52204,2.76951 -5.10194,5.7384"
         style="fill:#ffc88a;fill-opacity:1;fill-rule:evenodd;stroke:none"
         id="path25928"
         inkscape:connector-curvature="0" />
      <path
         d="m 622.64538,927.08604 c -1.84417,13.58161 -13.26554,21.85788 -25.20117,31.23791 9.44087,-10.04472 18.16178,-20.22035 25.20117,-31.23791"
         style="fill:#1c587f;fill-opacity:1;fill-rule:evenodd;stroke:none"
         id="path25932"
         inkscape:connector-curvature="0" />
      <path
         d="m 696.54702,912.11167 c -15.60482,5.42822 -29.40135,11.85545 -38.35188,23.11875 -3.43,4.31235 -4.5542,9.94199 1.07875,8.57638 -7.01786,13.55945 -8.13728,28.63558 -0.96633,42.40045 2.21252,4.24798 5.59468,6.44139 8.20186,2.3888 5.72623,9.96024 9.82836,20.62335 1.63128,26.56915 -8.42191,6.0989 -12.36378,7.3255 -5.59707,11.3721 16.28652,9.7425 36.57709,11.519 56.18358,9.4081 20.29774,-2.1853 32.81221,-6.671 48.74233,-16.5726 -0.80607,6.81 4.50397,4.0969 11.02431,-1.2952 12.32552,-10.1795 17.94891,-16.1234 21.90752,-29.78571 0.88499,6.46957 4.80534,4.30039 6.84564,0.41706 14.05726,-26.77655 -14.14337,-63.44066 -31.81479,-84.21088 -7.46037,22.61118 -66.07413,26.30316 -78.8852,7.6136"
         style="fill:#dededd;fill-opacity:1;fill-rule:evenodd;stroke:none"
         id="path25996"
         inkscape:connector-curvature="0" />
      <path
         d="m 659.68841,1021.5679 c -1.24618,1.5992 -0.56449,2.9246 2.85594,4.969 16.28652,9.7446 36.57709,11.5211 56.18358,9.4102 20.29535,-2.1853 32.80983,-6.673 48.74233,-16.5747 -0.80607,6.81 4.50398,4.097 11.02432,-1.2931 12.32551,-10.1816 17.9489,-16.1234 21.90751,-29.78758 0.885,6.4694 4.80534,4.30022 6.84564,0.41895 9.48393,-18.06526 -0.26789,-40.63011 -13.04308,-59.78094 3.49219,11.34185 6.17591,22.07945 7.74022,33.65694 0.708,5.26106 0.55731,21.4349 -6.25006,8.3367 -6.05393,15.03591 -10.53398,24.22457 -23.57707,35.69743 -3.49217,3.0736 -9.14905,3.293 -8.63,-3.3981 -27.65526,28.9418 -67.63365,32.0879 -103.79933,18.3452"
         style="fill:#afafad;fill-opacity:1;fill-rule:evenodd;stroke:none"
         id="path26000"
         inkscape:connector-curvature="0" />
      <path
         d="m 701.82358,988.1154 c -1.85852,-23.82976 1.08832,-27.45528 13.85873,-43.08129 -20.36473,14.79617 -18.31486,25.85804 -13.85873,43.08129"
         style="fill:#dededd;fill-opacity:1;fill-rule:evenodd;stroke:none"
         id="path26008"
         inkscape:connector-curvature="0" />
      <path
         d="m 697.90754,1008.5306 c 21.89555,-12.4779 9.65375,-40.02576 24.14394,-57.50883 -19.23335,17.84362 -5.98456,40.02787 -24.14394,57.50883"
         style="fill:#dededd;fill-opacity:1;fill-rule:evenodd;stroke:none"
         id="path26012"
         inkscape:connector-curvature="0" />
      <path
         d="m 747.11341,945.84515 c 6.74518,13.10022 4.88906,28.01321 1.43516,38.97034 10.95494,-14.80422 5.91519,-30.15226 -1.43516,-38.97034"
         style="fill:#dededd;fill-opacity:1;fill-rule:evenodd;stroke:none"
         id="path26016"
         inkscape:connector-curvature="0" />
      <path
         d="m 679.73811,968.11133 c 1.08593,-10.36899 10.80904,-19.50733 19.81458,-25.64051 -17.7671,6.53601 -21.5822,17.87786 -19.81458,25.64051"
         style="fill:#dededd;fill-opacity:1;fill-rule:evenodd;stroke:none"
         id="path26020"
         inkscape:connector-curvature="0" />
      <path
         d="m 792.03424,963.42008 c -24.42618,12.03272 -40.18409,38.35602 -39.00727,55.46842 0.29661,4.3023 1.1529,7.6821 2.45172,10.2764 3.59263,7.1805 8.54629,9.38 13.87068,3.0857 10.60334,-2.5459 27.10751,-7.3537 34.01295,-13.5413 21.12774,-18.92724 2.82007,-38.82128 -11.32808,-55.28922"
         style="fill:#2471a3;fill-opacity:1;fill-rule:evenodd;stroke:none"
         id="path26116"
         inkscape:connector-curvature="0" />
      <path
         d="m 755.43151,1029.0639 0.0478,0.1014 c 3.59265,7.1805 8.5439,9.3801 13.8683,3.0858 10.60572,-2.546 27.10989,-7.3518 34.01534,-13.5415 4.80296,-4.3023 7.56083,-8.6568 8.80223,-13.0135 -8.75678,10.6651 -19.29554,20.2928 -37.15833,18.1297 -7.50342,6.6105 -12.68668,8.5138 -19.57538,5.2388"
         style="fill:#1c587f;fill-opacity:1;fill-rule:evenodd;stroke:none"
         id="path26120"
         inkscape:connector-curvature="0" />
      <path
         d="m 790.98778,968.85095 c -21.0823,10.3831 -34.68509,33.10695 -33.66853,47.87505 0.91133,13.2351 5.50617,12.6491 11.21806,5.9719 6.47251,-7.5631 24.23005,-35.16745 22.45047,-53.84695"
         style="fill:#1c587f;fill-opacity:1;fill-rule:evenodd;stroke:none"
         id="path26124"
         inkscape:connector-curvature="0" />
      <path
         d="m 797.09838,978.20577 c -1.04048,15.3179 -12.7752,38.52113 -26.69133,49.86903 11.0004,-10.3811 23.60097,-40.32783 26.69133,-49.86903"
         style="fill:#1c587f;fill-opacity:1;fill-rule:evenodd;stroke:none"
         id="path26128"
         inkscape:connector-curvature="0" />
      <path
         d="m 790.95166,974.85593 c -3.62613,-4.45335 -11.16066,-11.34386 -19.45819,-12.03472 -4.29108,-0.3545 -7.9555,0.6264 -2.43257,3.76248 -10.18953,2.31027 -10.68228,5.44837 0,6.39301 -7.66128,2.83597 -12.50013,7.41219 -1.28206,8.76364 7.75457,0.93053 11.28024,5.81709 18.5086,10.57458 1.96374,-6.00834 3.85574,-11.30973 4.66422,-17.45899"
         style="fill:#ffc88a;fill-opacity:1;fill-rule:evenodd;stroke:none"
         id="path26132"
         inkscape:connector-curvature="0" />
      <path
         d="m 776.19018,862.75046 4.75511,0.76942 c 1.01897,7.87544 2.55936,23.75926 10.10344,27.62448 3.87489,1.98799 7.49386,-0.23366 11.25394,1.05543 8.1588,2.79568 -1.61216,12.83031 -7.61824,13.02166 -0.88501,9.40622 -18.03022,7.22486 -19.58973,4.28216 l -78.4714,-0.60829 c -7.63737,2.17532 -21.27604,-1.26893 -24.64385,-6.95497 -1.82264,-3.07565 -0.38988,-7.5854 1.89679,-6.57428 13.36599,5.90558 13.48558,-24.05132 12.69147,-34.43643 l 89.62247,1.82082 z"
         style="fill:#dededd;fill-opacity:1;fill-rule:evenodd;stroke:none"
         id="path26136"
         inkscape:connector-curvature="0" />
      <path
         d="m 774.24438,861.65281 6.93893,2.47342 c 0.18417,1.26893 0.2942,2.72114 0.40901,4.262 -28.43263,1.27699 -62.13224,2.21156 -94.98035,-0.14899 0.0741,-3.12398 0.0741,-5.82097 0.18179,-7.52899 l 87.45062,0.94263 z"
         style="fill:#afafad;fill-opacity:1;fill-rule:evenodd;stroke:none"
         id="path26140"
         inkscape:connector-curvature="0" />
      <path
         d="m 699.18195,908.91331 -2.55934,-0.0181 c -7.27858,2.07461 -14.76765,3.07364 -18.36748,-1.75837 8.01051,-1.76241 8.83093,-3.8048 13.34208,-14.98953 l 7.58474,16.76603 z"
         style="fill:#afafad;fill-opacity:1;fill-rule:evenodd;stroke:none"
         id="path26144"
         inkscape:connector-curvature="0" />
      <path
         d="m 803.76248,899.74724 c -2.18142,2.85208 -6.09219,5.37786 -9.07729,5.47453 -0.12923,11.31567 -20.04182,9.12625 -21.60375,6.18757 l 0.34445,-19.6725 1.63607,-11.72655 c 3.38215,15.86772 15.3991,25.19134 28.70052,19.73695"
         style="fill:#afafad;fill-opacity:1;fill-rule:evenodd;stroke:none"
         id="path26148"
         inkscape:connector-curvature="0" />
      <path
         d="m 774.03892,911.1418 -2.33211,11.62181 -11.97391,7.63374 -22.21844,3.76047 -33.86227,-3.76047 c -0.4736,-4.02232 -9.42652,-5.49468 -9.83793,-9.45052 -1.7724,-17.01983 -2.93487,-33.56228 -3.12383,-50.63447 -0.18418,-16.66129 11.40223,-22.75217 26.32058,-24.43602 31.60669,-3.57518 55.65495,2.0625 58.01577,16.07113 2.36081,14.01668 0.85153,29.85619 -0.98786,49.19433"
         style="fill:#ffc88a;fill-opacity:1;fill-rule:evenodd;stroke:none"
         id="path26152"
         inkscape:connector-curvature="0" />
      <path
         d="m 760.23733,918.67546 c -7.12071,-6.56421 1.88482,-25.02416 13.65781,-18.50426 -10.75402,-1.17225 -16.95386,8.08895 -13.65781,18.50426"
         style="fill:#ffa05d;fill-opacity:1;fill-rule:evenodd;stroke:none"
         id="path26156"
         inkscape:connector-curvature="0" />
      <path
         d="m 701.03185,914.44247 c 5.71188,-4.44328 0.46164,-18.47004 -8.66349,-14.29262 7.98419,-0.30213 11.85191,6.82001 8.66349,14.29262"
         style="fill:#ffa05d;fill-opacity:1;fill-rule:evenodd;stroke:none"
         id="path26160"
         inkscape:connector-curvature="0" />
      <path
         d="m 690.72607,868.38178 c 0.70801,-15.21108 11.95955,-20.88906 26.2847,-22.50644 31.60671,-3.57315 55.65497,2.06454 58.01577,16.07316 0.37076,2.18941 0.64583,4.4191 0.83718,6.70519 -25.94984,1.10781 -55.84871,1.76847 -85.13765,-0.27191"
         style="fill:#f19764;fill-opacity:1;fill-rule:evenodd;stroke:none"
         id="path26164"
         inkscape:connector-curvature="0" />
      <path
         d="m 767.57909,910.51433 c 2.8392,0.42297 4.69293,0.12682 7.22356,-1.2911 2.65981,-1.49652 5.78364,-1.41998 5.93911,2.90646 0.59559,16.77813 -30.95609,30.59338 -51.04096,23.32622 -18.91044,4.20159 -45.03249,-7.77877 -52.34456,-22.04519 -3.47544,-6.78175 0.7415,-9.49283 8.24731,-5.84716 3.20037,1.55897 5.69753,1.87318 10.32348,1.48848 15.17428,-1.26692 18.02065,3.68191 32.81462,11.34788 5.8817,-12.11731 29.76254,-11.25524 38.83744,-9.88559"
         style="fill:#afafad;fill-opacity:1;fill-rule:evenodd;stroke:none"
         id="path26168"
         inkscape:connector-curvature="0" />
      <path
         d="m 769.08214,907.97518 c 2.94683,0.43103 4.87232,0.133 7.50103,-1.28706 2.76504,-1.49654 6.0037,-1.42201 6.16635,2.90242 0.61949,16.78216 -32.14249,30.59943 -52.99995,23.33025 -19.63519,4.19957 -46.75945,-7.77875 -54.35137,-22.04922 -3.61178,-6.7757 0.7678,-9.48679 8.56304,-5.83912 3.31997,1.55495 5.91519,1.87321 10.72054,1.48446 15.75312,-1.26893 18.70713,3.68193 34.07276,11.34788 6.10415,-12.11528 30.90109,-11.25725 40.3276,-9.88961"
         style="fill:#dededd;fill-opacity:1;fill-rule:evenodd;stroke:none"
         id="path26176"
         inkscape:connector-curvature="0" />
      <path
         d="m 723.8052,857.14653 c -5.14021,24.70391 -5.37701,43.85876 -1.19595,68.60296 l 16.32957,-16.20407 -13.77741,7.34974 c -2.06422,-20.53255 -2.11445,-39.26039 -1.35621,-59.74863"
         style="fill:#ffa05d;fill-opacity:1;fill-rule:evenodd;stroke:none"
         id="path26180"
         inkscape:connector-curvature="0" />
      <path
         d="m 648.93773,860.27012 c 59.53942,11.21092 132.16499,4.74944 172.2797,3.26297 l -44.27424,-8.52199 c -5.05171,-21.62625 -11.80647,-42.32597 -19.16398,-63.0821 -3.06165,-8.63881 -8.21383,-19.58991 -4.61878,-24.93353 4.69053,-6.96705 0.48556,-7.23493 -6.67103,-4.41307 -31.60671,12.45569 -41.8991,56.21777 -55.07852,91.86876 l -42.47315,5.81896 z"
         style="fill:#2471a3;fill-opacity:1;fill-rule:evenodd;stroke:none"
         id="path26184"
         inkscape:connector-curvature="0" />
      <path
         d="m 783.35422,865.34101 c 14.3371,-0.67073 27.24146,-1.40792 37.86394,-1.80672 l -44.27427,-8.524 c -5.05171,-21.62425 -11.80885,-42.32599 -19.16397,-63.08009 -1.95658,-5.50878 -4.75752,-11.96019 -5.59947,-17.3018 -2.6263,8.07082 -1.55474,14.8425 0.56688,23.47325 4.69771,19.12464 6.9222,38.77095 10.28283,58.11916 7.78327,2.73121 13.75588,5.37584 20.32406,9.1202"
         style="fill:#1c587f;fill-opacity:1;fill-rule:evenodd;stroke:none"
         id="path26188"
         inkscape:connector-curvature="0" />
      <path
         d="m 754.01001,761.02438 c -1.44471,-0.41492 -4.15715,0.22761 -7.52256,1.55696 -28.60485,11.26933 -39.75354,48.18723 -51.37823,81.52795 10.82579,8.51998 16.36784,1.52473 17.97042,-8.1957 3.38934,-20.5406 2.77701,-52.54592 31.03982,-67.67241 4.69772,-2.51168 8.69699,-4.72324 9.89055,-7.2168"
         style="fill:#2c89c6;fill-opacity:1;fill-rule:evenodd;stroke:none"
         id="path26192"
         inkscape:connector-curvature="0" />
      <path
         d="m 683.34703,855.5534 -26.72003,3.66179 c 21.0823,4.10892 46.10885,6.38293 63.97881,5.58934 10.08907,-0.44716 7.54169,-4.19352 -0.0765,-4.20359 -12.98568,-0.0222 -24.8376,-2.22769 -37.18224,-5.04754"
         style="fill:#2c89c6;fill-opacity:1;fill-rule:evenodd;stroke:none"
         id="path26196"
         inkscape:connector-curvature="0" />
      <path
         d="m 707.57348,880.45703 c 2.25557,-0.0725 4.15714,1.40187 4.24803,3.29923 0.0885,1.90138 -1.66716,3.50065 -3.92034,3.5792 -2.25318,0.0746 -4.15474,-1.4039 -4.24564,-3.30528 -0.0909,-1.89735 1.66238,-3.49661 3.91795,-3.57315"
         style="fill:#201b16;fill-opacity:1;fill-rule:evenodd;stroke:none"
         id="path26204"
         inkscape:connector-curvature="0" />
      <path
         d="m 745.49004,885.68923 c -2.03073,8.71939 12.00977,17.22728 18.03499,6.50176 -8.45779,5.71424 -16.5831,-2.01619 -18.03499,-6.50176"
         style="fill:#ffa05d;fill-opacity:1;fill-rule:evenodd;stroke:none"
         id="path26208"
         inkscape:connector-curvature="0" />
      <path
         d="m 711.46032,886.83409 c 1.59301,4.77964 -5.77647,10.04673 -9.69681,4.30228 5.01345,2.86618 9.12514,-1.74831 9.69681,-4.30228"
         style="fill:#ffa05d;fill-opacity:1;fill-rule:evenodd;stroke:none"
         id="path26212"
         inkscape:connector-curvature="0" />
      <path
         d="m 703.07334,870.90354 c 1.80589,-1.80068 3.90121,-2.36263 6.97242,-2.83595 3.253,-0.51363 4.51114,-1.2911 4.30544,-2.79166 -0.36597,-2.70706 -2.62393,-3.2811 -5.09477,-2.94272 -4.72163,0.65864 -9.55568,2.75943 -11.25394,5.63567 -1.361,2.29819 -0.51665,3.80479 0.55253,4.38286 1.34904,0.72712 2.44214,0.61432 4.51832,-1.4482"
         style="fill:#dededd;fill-opacity:1;fill-rule:evenodd;stroke:none"
         id="path26216"
         inkscape:connector-curvature="0" />
      <path
         d="m 772.22607,876.92835 c 11.28025,-3.13407 17.74558,-3.85514 18.78128,2.98904 1.63367,10.81011 -11.05781,6.64278 -18.94393,5.3114 l 0.16274,-8.30044 z"
         style="fill:#ffc88a;fill-opacity:1;fill-rule:evenodd;stroke:none"
         id="path26220"
         inkscape:connector-curvature="0" />
      <path
         d="m 693.71956,879.30459 c -8.95531,-1.83089 -14.00225,-2.05446 -14.30123,3.29318 -0.46643,8.43941 9.03902,4.55608 15.03793,3.11595 l -0.7367,-6.40913 z"
         style="fill:#ffc88a;fill-opacity:1;fill-rule:evenodd;stroke:none"
         id="path26224"
         inkscape:connector-curvature="0" />
      <path
         d="m 775.82328,882.28253 c 2.98271,-3.10587 8.84051,-6.90864 12.95459,-1.21657 -5.59947,-1.28706 -7.57278,-0.74726 -12.95459,1.21657"
         style="fill:#ffa05d;fill-opacity:1;fill-rule:evenodd;stroke:none"
         id="path26228"
         inkscape:connector-curvature="0" />
      <path
         d="m 688.91348,883.96429 c -2.06182,-2.93265 -5.93672,-6.41113 -8.02007,-0.51159 3.33193,-1.58719 4.57811,-1.15816 8.02007,0.51159"
         style="fill:#ffa05d;fill-opacity:1;fill-rule:evenodd;stroke:none"
         id="path26232"
         inkscape:connector-curvature="0" />
      <path
         d="m 777.82865,873.88935 -1.74609,-4.95488 c -2.90378,2.98097 -4.03995,4.2781 -5.70472,7.36585 -1.51647,2.80576 -1.99485,4.97704 -0.0287,5.98614 6.81217,3.50266 6.42468,-5.52892 7.47951,-8.39711"
         style="fill:#dededd;fill-opacity:1;fill-rule:evenodd;stroke:none"
         id="path26236"
         inkscape:connector-curvature="0" />
      <path
         d="m 689.02089,876.86534 0.93045,-5.24291 c 1.28924,1.95576 2.39191,3.78464 3.20277,5.86328 0.73431,1.88527 1.0333,3.36568 0.31812,4.13713 -2.4828,2.66878 -3.88924,-2.8118 -4.45134,-4.7575"
         style="fill:#dededd;fill-opacity:1;fill-rule:evenodd;stroke:none"
         id="path26240"
         inkscape:connector-curvature="0" />
      <path
         d="m 761.097,872.33957 c -2.49715,-2.72719 -5.51574,-3.66581 -9.96708,-4.54802 -4.71686,-0.92854 -6.49405,-2.14107 -6.07545,-4.32041 0.75822,-3.94175 4.1093,-4.65678 7.68997,-4.01224 6.85044,1.23267 13.75349,4.58024 16.00188,8.87649 1.8083,3.44626 0.45448,5.59941 -1.16245,6.38092 -2.02596,0.98896 -3.61658,0.76337 -6.48687,-2.37674"
         style="fill:#dededd;fill-opacity:1;fill-rule:evenodd;stroke:none"
         id="path26244"
         inkscape:connector-curvature="0" />
      <path
         d="m 689.44257,855.06145 c -1.25814,-0.18733 -2.10009,-1.20246 -1.87526,-2.26193 0.22245,-1.06147 1.42319,-1.76845 2.68134,-1.58112 15.00923,2.27602 29.27219,3.44626 43.53994,3.5228 14.27252,0.0866 28.57136,-0.91646 43.65475,-2.98502 1.26291,-0.17115 2.45408,0.55793 2.6598,1.61939 0.20092,1.06349 -0.66256,2.06656 -1.9255,2.23978 -15.31778,2.09876 -29.86776,3.11795 -44.41536,3.03335 -14.54521,-0.0806 -29.0665,-1.27497 -44.31971,-3.58725"
         style="fill:#cda35a;fill-opacity:1;fill-rule:nonzero;stroke:none"
         id="path26248"
         inkscape:connector-curvature="0" />
      <path
         d="m 693.37248,851.67246 c 0.96155,0.14298 1.91831,0.27394 2.87747,0.39882 1.5356,1.08765 2.25079,2.10883 3.06882,4.34256 -0.91849,-0.11084 -1.83221,-0.22761 -2.75787,-0.34644 -1.61933,-1.13398 -2.23644,-2.30826 -3.18842,-4.39494"
         style="fill:#9f7333;fill-opacity:1;fill-rule:nonzero;stroke:none"
         id="path26252"
         inkscape:connector-curvature="0" />
      <path
         d="m 706.99418,853.32666 c 0.96394,0.0968 1.93266,0.1853 2.8966,0.27191 1.43515,1.04134 2.13598,2.05245 2.92052,4.16936 -0.8874,-0.0665 -1.77958,-0.14297 -2.67176,-0.21954 -1.60258,-1.10982 -2.23883,-2.24179 -3.14536,-4.22173"
         style="fill:#9f7333;fill-opacity:1;fill-rule:nonzero;stroke:none"
         id="path26256"
         inkscape:connector-curvature="0" />
      <path
         d="m 719.62176,854.30621 c 1.01179,0.0545 2.02596,0.10878 3.03772,0.15311 1.25336,0.9809 1.90876,2.00612 2.65025,4.01627 -0.79891,-0.0261 -1.6002,-0.0584 -2.40388,-0.0926 -1.72457,-1.10982 -2.40387,-2.19143 -3.28409,-4.0767"
         style="fill:#9f7333;fill-opacity:1;fill-rule:nonzero;stroke:none"
         id="path26260"
         inkscape:connector-curvature="0" />
      <path
         d="m 732.85188,854.73901 0.93764,0.002 c 0.6458,0.009 1.29163,0.009 1.93743,0.009 1.29882,0.97487 1.97334,1.9618 2.70766,3.88937 -0.83717,0.0103 -1.67195,0.0138 -2.50913,0.0138 -1.57386,-1.05744 -2.23642,-2.12093 -3.0736,-3.91356"
         style="fill:#9f7333;fill-opacity:1;fill-rule:nonzero;stroke:none"
         id="path26264"
         inkscape:connector-curvature="0" />
      <path
         d="m 745.50535,854.57176 c 0.88501,-0.0342 1.7724,-0.0665 2.6598,-0.10878 1.38731,0.98695 2.1001,1.92757 2.83681,3.77457 -0.88501,0.0464 -1.77002,0.0866 -2.65263,0.12888 -1.40644,-1.01513 -2.0403,-2.06855 -2.84398,-3.7947"
         style="fill:#9f7333;fill-opacity:1;fill-rule:nonzero;stroke:none"
         id="path26268"
         inkscape:connector-curvature="0" />
      <path
         d="m 758.69218,853.8046 c 0.86348,-0.0665 1.72935,-0.14092 2.59761,-0.21551 1.36817,0.9688 2.08096,1.88727 2.80333,3.67184 -0.86826,0.0785 -1.74132,0.16119 -2.60719,0.23566 -1.37774,-0.993 -2.0116,-2.02829 -2.79375,-3.69199"
         style="fill:#9f7333;fill-opacity:1;fill-rule:nonzero;stroke:none"
         id="path26272"
         inkscape:connector-curvature="0" />
      <path
         d="m 771.18439,852.55969 c 0.7391,-0.0906 1.4782,-0.17724 2.22208,-0.27394 1.57388,1.01919 2.37517,1.88328 3.11905,3.55504 -0.95198,0.12287 -1.90396,0.24572 -2.85115,0.36256 -1.1529,-0.95473 -1.73174,-2.00612 -2.48998,-3.64366"
         style="fill:#9f7333;fill-opacity:1;fill-rule:nonzero;stroke:none"
         id="path26276"
         inkscape:connector-curvature="0" />
      <path
         d="m 749.36398,912.7844 c 5.0876,6.75152 5.36985,12.35095 3.40609,17.614 7.48428,-6.23388 2.73633,-14.49605 -3.40609,-17.614"
         style="fill:#cfcfce;fill-opacity:1;fill-rule:evenodd;stroke:none"
         id="path26280"
         inkscape:connector-curvature="0" />
      <path
         d="m 755.70586,912.09393 c 5.1761,3.31332 6.94372,6.85224 7.17333,10.6248 3.03774,-5.50677 -2.34884,-9.85337 -7.17333,-10.6248"
         style="fill:#cfcfce;fill-opacity:1;fill-rule:evenodd;stroke:none"
         id="path26284"
         inkscape:connector-curvature="0" />
      <path
         d="m 705.7829,911.54511 c -4.91299,3.58927 -6.40315,7.2148 -6.34096,10.99542 -3.45631,-5.32954 1.58584,-9.96416 6.34096,-10.99542"
         style="fill:#cfcfce;fill-opacity:1;fill-rule:evenodd;stroke:none"
         id="path26288"
         inkscape:connector-curvature="0" />
      <path
         d="m 749.7594,881.19455 c 2.25557,-0.0725 4.15714,1.40187 4.24803,3.29923 0.0885,1.90138 -1.66716,3.50065 -3.92035,3.5792 -2.25318,0.0746 -4.15473,-1.4039 -4.24564,-3.30528 -0.0909,-1.89735 1.66238,-3.49661 3.91796,-3.57315"
         style="fill:#201b16;fill-opacity:1;fill-rule:evenodd;stroke:none"
         id="path26204-6"
         inkscape:connector-curvature="0" />
      <path
         d="m 579.81984,873.60633 2.12596,-15.81055 -11.84842,-10.72426 15.70677,-2.90787 6.56473,-14.53342 7.59024,14.01964 15.86244,1.73738 -11.03809,11.57835 3.29748,15.63709 -14.40881,-6.9284 z"
         id="path8182"
         style="opacity:1;fill:#f5f69a;fill-opacity:1;stroke:none;stroke-width:1;stroke-linecap:butt;stroke-linejoin:round;stroke-miterlimit:4;stroke-dasharray:none;stroke-opacity:1"
         inkscape:connector-curvature="0" />
      <path
         d="m 621.72468,824.64954 3.23049,-24.02475 -18.00414,-16.29593 23.86705,-4.41862 9.97537,-22.08411 11.53367,21.3034 24.10358,2.64002 -16.77279,17.59376 5.01064,23.76116 -21.89474,-10.52798 z"
         id="path8182-0"
         style="opacity:1;fill:#f5f69a;fill-opacity:1;stroke:none;stroke-width:1;stroke-linecap:butt;stroke-linejoin:round;stroke-miterlimit:4;stroke-dasharray:none;stroke-opacity:1"
         inkscape:connector-curvature="0" />
      <path
         d="m 577.70338,915.75634 1.44228,-10.72608 -8.03812,-7.27548 10.65568,-1.97273 4.4536,-9.85967 5.14932,9.51111 10.76128,1.17866 -7.48838,7.85491 2.23705,10.6084 -9.77512,-4.70031 z"
         id="path8182-3"
         style="opacity:1;fill:#f5f69a;fill-opacity:1;stroke:none;stroke-width:1;stroke-linecap:butt;stroke-linejoin:round;stroke-miterlimit:4;stroke-dasharray:none;stroke-opacity:1"
         inkscape:connector-curvature="0" />
    </g>
  </g>
</svg>
