<?xml version="1.0" encoding="UTF-8" standalone="no"?>
<!-- Created with Inkscape (http://www.inkscape.org/) -->

<svg
   xmlns:dc="http://purl.org/dc/elements/1.1/"
   xmlns:cc="http://creativecommons.org/ns#"
   xmlns:rdf="http://www.w3.org/1999/02/22-rdf-syntax-ns#"
   xmlns:svg="http://www.w3.org/2000/svg"
   xmlns="http://www.w3.org/2000/svg"
   xmlns:sodipodi="http://sodipodi.sourceforge.net/DTD/sodipodi-0.dtd"
   xmlns:inkscape="http://www.inkscape.org/namespaces/inkscape"
   width="200"
   height="200"
   viewBox="0 0 199.99999 199.99999"
   id="svg2"
   version="1.1"
   inkscape:version="0.91 r13725"
   sodipodi:docname="logo.svg">
  <defs
     id="defs4">
    <clipPath
       clipPathUnits="userSpaceOnUse"
       id="clipPath16">
      <path
         d="M 0,36 36,36 36,0 0,0 0,36 Z"
         id="path18" />
    </clipPath>
  </defs>
  <sodipodi:namedview
     id="base"
     pagecolor="#ffffff"
     bordercolor="#666666"
     borderopacity="1.0"
     inkscape:pageopacity="0.0"
     inkscape:pageshadow="2"
     inkscape:zoom="1.979899"
     inkscape:cx="214.13325"
     inkscape:cy="140.90972"
     inkscape:document-units="px"
     inkscape:current-layer="layer1"
     showgrid="false"
     inkscape:window-width="1600"
     inkscape:window-height="839"
     inkscape:window-x="0"
     inkscape:window-y="27"
     inkscape:window-maximized="1"
     units="px" />
  <metadata
     id="metadata7">
    <rdf:RDF>
      <cc:Work
         rdf:about="">
        <dc:format>image/svg+xml</dc:format>
        <dc:type
           rdf:resource="http://purl.org/dc/dcmitype/StillImage" />
        <dc:title />
      </cc:Work>
    </rdf:RDF>
  </metadata>
  <g
     inkscape:label="Capa 1"
     inkscape:groupmode="layer"
     id="layer1"
     transform="translate(0,-852.36225)">
    <path
       inkscape:connector-curvature="0"
       id="path4198"
       d="m 160.57144,620.21939 0,-128 128,0 128,0 0,128 0,128 -128,0 -128,0 0,-128 z"
       style="fill:#fefefd" />
    <g
       id="g4411"
       transform="translate(0.28802875,-1.0278921)">
      <path
         d="m 148.26297,971.35972 c -1.20804,-1.98601 0.81603,-2.16118 2.24327,-0.8933 6.47861,5.74519 15.01007,16.93105 18.69338,21.93115 2.54088,3.44522 2.70889,4.93405 -2.07046,2.12209 -22.3223,36.54204 -87.290716,31.49474 -86.439493,-4.93272 l 3.66571,-11.04708 c 16.141313,4.34931 51.251203,1.05365 63.907593,-7.18014"
         style="fill:#2471a3;fill-opacity:1;fill-rule:evenodd;stroke:none"
         id="path25908"
         inkscape:connector-curvature="0" />
      <path
         d="m 160.10701,1003.4137 c -16.58611,16.5605 -43.79816,19.9559 -61.664317,12.067 l -0.04161,-2.8281 c 29.141707,0.7195 39.980447,1.1142 61.705927,-9.2389"
         style="fill:#1c587f;fill-opacity:1;fill-rule:evenodd;stroke:none"
         id="path25912"
         inkscape:connector-curvature="0" />
      <path
         d="m 119.50656,1019.5348 c -20.72385,0.1334 -39.273226,-10.372 -38.817214,-29.94794 l 3.66571,-11.0471 c 9.617905,2.59235 25.972014,2.46839 40.297254,0.20481 0.68803,0.71276 1.34085,1.45921 1.96326,2.23798 2.29128,2.88337 3.0449,6.65331 -0.72482,5.73575 4.69615,9.06915 5.44338,19.1569 0.64802,28.3649 -1.48164,2.8443 -3.74091,4.3115 -5.48977,1.5993 -0.54082,0.9445 -1.06243,1.8997 -1.54244,2.8523"
         style="fill:#1c587f;fill-opacity:1;fill-rule:evenodd;stroke:none"
         id="path25916"
         inkscape:connector-curvature="0" />
      <path
         d="m 148.84106,972.29911 c 1.23364,9.08531 8.87388,14.62166 16.85813,20.89636 -6.3154,-6.71934 -12.14918,-13.52625 -16.85813,-20.89636"
         style="fill:#1c587f;fill-opacity:1;fill-rule:evenodd;stroke:none"
         id="path25932"
         inkscape:connector-curvature="0" />
      <path
         d="m 99.405127,962.28212 c 10.438723,3.63116 19.667803,7.93061 25.655193,15.46511 2.29447,2.88471 3.0465,6.65062 -0.72162,5.7371 4.69454,9.07049 5.44337,19.15557 0.64642,28.36347 -1.48005,2.8416 -3.74252,4.3089 -5.48657,1.598 -3.83052,6.6628 -6.57461,13.7958 -1.09123,17.7732 5.63377,4.0798 8.27065,4.9003 3.74411,7.6073 -10.89474,6.5171 -24.467959,7.7055 -37.58357,6.2934 -13.578017,-1.4618 -21.949476,-4.4625 -32.605807,-11.0861 0.539214,4.5555 -3.012896,2.7406 -7.374627,-0.8664 -8.245062,-6.8095 -12.006786,-10.7856 -14.654867,-19.9249 -0.592008,4.3278 -3.214496,2.8767 -4.579339,0.279 -9.403496,-17.91199 9.461099,-42.43816 21.28226,-56.33224 4.990557,15.12557 44.199781,17.59529 52.769647,5.09306"
         style="fill:#dededd;fill-opacity:1;fill-rule:evenodd;stroke:none"
         id="path25996"
         inkscape:connector-curvature="0" />
      <path
         d="m 124.06141,1035.502 c 0.83362,1.0698 0.37761,1.9564 -1.91046,3.324 -10.89474,6.5186 -24.467961,7.7069 -37.583572,6.2949 -13.576418,-1.4619 -21.947883,-4.4639 -32.605807,-11.0875 0.539215,4.5555 -3.012902,2.7406 -7.374634,-0.8651 -8.245055,-6.8109 -12.006778,-10.7856 -14.65486,-19.9261 -0.592014,4.3276 -3.214495,2.8766 -4.579338,0.2802 -6.344202,-12.0846 0.179203,-27.17917 8.725068,-39.98997 -2.336074,7.58704 -4.131328,14.76988 -5.177761,22.51455 -0.473611,3.51935 -0.372808,14.33872 4.18093,5.57682 4.04973,10.0581 7.046625,16.2048 15.771699,23.8795 2.336061,2.056 6.120187,2.2028 5.772973,-2.2732 18.499773,19.3604 45.24301,21.465 69.435762,12.2719"
         style="fill:#afafad;fill-opacity:1;fill-rule:evenodd;stroke:none"
         id="path26000"
         inkscape:connector-curvature="0" />
      <path
         d="m 95.875413,1013.1242 c 1.243243,-15.94071 -0.728023,-18.36597 -9.270691,-28.81887 13.622828,9.89778 12.251585,17.29757 9.270691,28.81887"
         style="fill:#dededd;fill-opacity:1;fill-rule:evenodd;stroke:none"
         id="path26008"
         inkscape:connector-curvature="0" />
      <path
         d="m 98.495018,1026.7808 c -14.64686,-8.347 -6.457802,-26.7749 -16.150903,-38.47007 12.866002,11.93637 4.003325,26.77637 16.150903,38.47007"
         style="fill:#dededd;fill-opacity:1;fill-rule:evenodd;stroke:none"
         id="path26012"
         inkscape:connector-curvature="0" />
      <path
         d="m 65.57913,984.84787 c -4.512137,8.76329 -3.270499,18.73923 -0.96004,26.06893 -7.328222,-9.9032 -3.95692,-20.17014 0.96004,-26.06893"
         style="fill:#dededd;fill-opacity:1;fill-rule:evenodd;stroke:none"
         id="path26016"
         inkscape:connector-curvature="0" />
      <path
         d="m 110.64932,999.74266 c -0.72643,-6.93626 -7.23063,-13.04928 -13.254812,-17.15202 11.885162,4.37221 14.437242,11.95925 13.254812,17.15202"
         style="fill:#dededd;fill-opacity:1;fill-rule:evenodd;stroke:none"
         id="path26020"
         inkscape:connector-curvature="0" />
      <path
         d="m 35.529686,996.60448 c 16.339705,8.04922 26.880838,25.65792 26.093613,37.10522 -0.198415,2.8779 -0.771223,5.1388 -1.640059,6.8743 -2.403262,4.8033 -5.716975,6.2747 -9.278685,2.0641 -7.093023,-1.703 -18.13336,-4.9192 -22.752701,-9.0583 -14.133239,-12.6612 -1.886464,-25.9692 7.577832,-36.98532"
         style="fill:#2471a3;fill-opacity:1;fill-rule:evenodd;stroke:none"
         id="path26116"
         inkscape:connector-curvature="0" />
      <path
         d="m 60.014801,1040.5164 -0.03198,0.068 c -2.403275,4.8034 -5.715376,6.2748 -9.277092,2.0643 -7.094615,-1.7032 -18.134953,-4.918 -22.754301,-9.0585 -3.212903,-2.878 -5.057759,-5.7909 -5.888184,-8.7053 5.857781,7.1343 12.907603,13.5747 24.856779,12.1277 5.019356,4.4221 8.486658,5.6953 13.0948,3.5045"
         style="fill:#1c587f;fill-opacity:1;fill-rule:evenodd;stroke:none"
         id="path26120"
         inkscape:connector-curvature="0" />
      <path
         d="m 36.229707,1000.2374 c 14.102843,6.9457 23.202324,22.1467 22.522304,32.0257 -0.609627,8.8535 -3.68331,8.4615 -7.504234,3.9948 -4.329736,-5.0593 -16.208506,-23.525 -15.01807,-36.0205"
         style="fill:#1c587f;fill-opacity:1;fill-rule:evenodd;stroke:none"
         id="path26124"
         inkscape:connector-curvature="0" />
      <path
         d="m 32.142068,1006.4953 c 0.696021,10.2467 8.545872,25.7684 17.85496,33.3595 -7.358633,-6.9444 -15.787687,-26.977 -17.85496,-33.3595"
         style="fill:#1c587f;fill-opacity:1;fill-rule:evenodd;stroke:none"
         id="path26128"
         inkscape:connector-curvature="0" />
      <path
         d="m 46.128448,929.26232 -3.180894,0.51469 c -0.681632,5.26822 -1.712064,15.89358 -6.758619,18.47919 -2.592078,1.32985 -5.01296,-0.15631 -7.528236,0.70602 -5.457767,1.87015 1.078442,8.58274 5.096163,8.71074 0.59202,6.29222 12.061177,4.83301 13.104399,2.86452 L 99.3541,960.13056 c 5.10896,1.45517 14.23244,-0.84884 16.48531,-4.65247 1.21925,-2.05743 0.26081,-5.07419 -1.26884,-4.39781 -8.94107,3.95049 -9.02107,-16.08895 -8.48986,-23.03599 l -59.952262,1.21803 z"
         style="fill:#dededd;fill-opacity:1;fill-rule:evenodd;stroke:none"
         id="path26136"
         inkscape:connector-curvature="0" />
      <path
         d="m 47.430076,928.52805 -4.641744,1.65458 c -0.123199,0.84884 -0.196803,1.82028 -0.273604,2.85103 19.019789,0.85423 41.562884,1.4794 63.536372,-0.0997 -0.0496,-2.08976 -0.0496,-3.89389 -0.1216,-5.03646 l -58.499424,0.63057 z"
         style="fill:#afafad;fill-opacity:1;fill-rule:evenodd;stroke:none"
         id="path26140"
         inkscape:connector-curvature="0" />
      <path
         d="m 97.642511,960.1426 1.712051,-0.0121 c 4.868948,1.3878 9.878708,2.05609 12.286788,-1.17625 -5.35857,-1.17895 -5.90739,-2.54519 -8.92509,-10.02713 l -5.073749,11.21551 z"
         style="fill:#afafad;fill-opacity:1;fill-rule:evenodd;stroke:none"
         id="path26144"
         inkscape:connector-curvature="0" />
      <path
         d="m 27.68417,954.01103 c 1.459244,1.90787 4.075324,3.59748 6.072183,3.66214 0.08645,7.56953 13.406822,6.10494 14.451663,4.13913 l -0.230417,-13.15977 -1.094437,-7.84438 C 44.620699,951.42274 36.582053,957.6597 27.68417,954.01103"
         style="fill:#afafad;fill-opacity:1;fill-rule:evenodd;stroke:none"
         id="path26148"
         inkscape:connector-curvature="0" />
      <path
         d="m 47.567517,961.63333 1.560047,7.77432 8.009855,5.10653 14.862854,2.51554 22.651906,-2.51554 c 0.316811,-2.6907 6.305801,-3.67562 6.581011,-6.32185 1.18563,-11.38528 1.96325,-22.45123 2.08966,-33.87154 0.1232,-11.14544 -7.627436,-15.21989 -17.606951,-16.34629 -21.143053,-2.39159 -37.229951,1.3797 -38.809204,10.75066 -1.579245,9.37635 -0.569624,19.97207 0.660822,32.90817"
         style="fill:#ffc88a;fill-opacity:1;fill-rule:evenodd;stroke:none"
         id="path26152"
         inkscape:connector-curvature="0" />
      <path
         d="m 56.799984,966.67291 c 4.763345,-4.39107 -1.260836,-16.73972 -9.136287,-12.37828 7.193819,-0.78417 11.341155,5.41104 9.136287,12.37828"
         style="fill:#ffa05d;fill-opacity:1;fill-rule:evenodd;stroke:none"
         id="path26156"
         inkscape:connector-curvature="0" />
      <path
         d="m 96.405035,963.84129 c -3.820918,-2.9723 -0.308811,-12.35539 5.795375,-9.56094 -5.340963,-0.20211 -7.928244,4.56219 -5.795375,9.56094"
         style="fill:#ffa05d;fill-opacity:1;fill-rule:evenodd;stroke:none"
         id="path26160"
         inkscape:connector-curvature="0" />
      <path
         d="m 103.29901,933.02934 c -0.47362,-10.17533 -8.000252,-13.97357 -17.582951,-15.05551 -21.143065,-2.39023 -37.229964,1.38106 -38.809203,10.75202 -0.248017,1.46459 -0.432023,2.95612 -0.560025,4.48539 17.358946,0.74106 37.359565,1.183 56.952179,-0.1819"
         style="fill:#f19764;fill-opacity:1;fill-rule:evenodd;stroke:none"
         id="path26164"
         inkscape:connector-curvature="0" />
      <path
         d="m 51.88877,961.21359 c -1.899261,0.28294 -3.139299,0.0848 -4.832144,-0.86367 -1.77926,-1.00109 -3.868922,-0.94989 -3.972922,1.94425 -0.398416,11.2236 20.707838,20.46521 34.143457,15.6039 12.649994,2.81062 30.124139,-5.20355 35.015489,-14.74696 2.32487,-4.5366 -0.49602,-6.35016 -5.51697,-3.91142 -2.14087,1.04287 -3.81132,1.25305 -6.905815,0.99571 -10.150718,-0.84749 -12.054775,2.46299 -21.951088,7.59108 -3.934518,-8.10578 -19.909422,-7.52911 -25.980007,-6.61289"
         style="fill:#afafad;fill-opacity:1;fill-rule:evenodd;stroke:none"
         id="path26168"
         inkscape:connector-curvature="0" />
      <path
         d="m 50.883317,959.51504 c -1.97126,0.28834 -3.259301,0.089 -5.017757,-0.86096 -1.849652,-1.0011 -4.016129,-0.95125 -4.124932,1.94155 -0.414403,11.22629 21.501471,20.46925 35.453909,15.60659 13.134809,2.80927 31.279373,-5.20354 36.357933,-14.74966 2.41607,-4.53255 -0.51362,-6.34611 -5.72818,-3.90603 -2.22087,1.04017 -3.95692,1.25307 -7.17142,0.99302 -10.537933,-0.84885 -12.513995,2.46299 -22.792715,7.59107 -4.083325,-8.10442 -20.671047,-7.53045 -26.976838,-6.61558"
         style="fill:#dededd;fill-opacity:1;fill-rule:evenodd;stroke:none"
         id="path26176"
         inkscape:connector-curvature="0" />
      <path
         d="m 81.170978,925.51361 c 3.438503,16.52549 3.596909,29.33898 0.800021,45.89142 l -10.92354,-10.83959 9.216292,4.91656 c 1.380844,-13.7351 1.414445,-26.26294 0.907227,-39.96839"
         style="fill:#ffa05d;fill-opacity:1;fill-rule:evenodd;stroke:none"
         id="path26180"
         inkscape:connector-curvature="0" />
      <path
         d="m 131.253,927.60311 c -39.828441,7.49946 -88.410758,3.1771 -115.245185,2.18274 l 29.616913,-5.70072 c 3.379302,-14.46671 7.897847,-28.31363 12.819597,-42.19829 2.048067,-5.77886 5.494578,-13.10452 3.089697,-16.67909 -3.137694,-4.66055 -0.324811,-4.83975 4.462534,-2.95209 21.143066,8.33214 28.028081,37.60645 36.844354,61.4549 l 28.41209,3.89255 z"
         style="fill:#2471a3;fill-opacity:1;fill-rule:evenodd;stroke:none"
         id="path26184"
         inkscape:connector-curvature="0" />
      <path
         d="m 41.336119,930.99524 c -9.590693,-0.44868 -18.222966,-0.94181 -25.328792,-1.20859 l 29.616932,-5.70206 c 3.379303,-14.46538 7.89944,-28.31365 12.819591,-42.19694 1.308839,-3.68506 3.182506,-8.00068 3.745722,-11.57391 1.756843,5.39891 1.040032,9.92878 -0.37921,15.70225 -3.142497,12.79328 -4.630552,25.93553 -6.87862,38.87837 -5.206558,1.82702 -9.20189,3.59612 -13.595623,6.10088"
         style="fill:#1c587f;fill-opacity:1;fill-rule:evenodd;stroke:none"
         id="path26188"
         inkscape:connector-curvature="0" />
      <path
         d="m 60.965702,861.21344 c 0.966428,-0.27756 2.780894,0.15225 5.032159,1.04151 19.134994,7.53853 26.592825,32.23448 34.369069,54.5375 -7.241826,5.69937 -10.949138,1.01995 -12.021172,-5.48245 -2.267273,-13.74048 -1.857659,-35.15019 -20.763848,-45.26894 -3.142504,-1.68017 -5.817785,-3.15958 -6.616208,-4.82762"
         style="fill:#2c89c6;fill-opacity:1;fill-rule:evenodd;stroke:none"
         id="path26192"
         inkscape:connector-curvature="0" />
      <path
         d="m 108.23516,924.4479 17.87416,2.44952 c -14.10284,2.74863 -30.844163,4.26982 -42.798135,3.73895 -6.749006,-0.29912 -5.044956,-2.80522 0.05117,-2.81196 8.686671,-0.0148 16.614921,-1.4902 24.872775,-3.37651"
         style="fill:#2c89c6;fill-opacity:1;fill-rule:evenodd;stroke:none"
         id="path26196"
         inkscape:connector-curvature="0" />
      <path
         d="m 92.029062,941.10699 c -1.508846,-0.0485 -2.780887,0.93777 -2.841687,2.20699 -0.0592,1.27192 1.115234,2.34174 2.622481,2.39428 1.507248,0.0499 2.779281,-0.93913 2.840088,-2.21104 0.06081,-1.26922 -1.112036,-2.33903 -2.620882,-2.39023"
         style="fill:#201b16;fill-opacity:1;fill-rule:evenodd;stroke:none"
         id="path26204"
         inkscape:connector-curvature="0" />
      <path
         d="m 66.665071,944.60703 c 1.358441,5.83277 -8.033844,11.52406 -12.064368,4.3493 5.657773,3.8225 11.093137,-1.34871 12.064368,-4.3493"
         style="fill:#ffa05d;fill-opacity:1;fill-rule:evenodd;stroke:none"
         id="path26208"
         inkscape:connector-curvature="0" />
      <path
         d="m 89.42899,945.37287 c -1.065632,3.19731 3.864125,6.72069 6.486607,2.87798 -3.353709,1.91731 -6.104193,-1.16952 -6.486607,-2.87798"
         style="fill:#ffa05d;fill-opacity:1;fill-rule:evenodd;stroke:none"
         id="path26212"
         inkscape:connector-curvature="0" />
      <path
         d="m 95.039396,934.71626 c -1.208036,-1.20456 -2.609685,-1.58047 -4.664147,-1.89709 -2.176069,-0.34359 -3.017692,-0.86367 -2.880091,-1.86746 0.244813,-1.81087 1.755258,-2.19487 3.408107,-1.96851 3.158498,0.44059 6.392199,1.8459 7.528237,3.76994 0.91043,1.53735 0.345609,2.54518 -0.369611,2.93188 -0.90243,0.4864 -1.633651,0.41094 -3.022495,-0.96876"
         style="fill:#dededd;fill-opacity:1;fill-rule:evenodd;stroke:none"
         id="path26216"
         inkscape:connector-curvature="0" />
      <path
         d="m 48.780209,938.74651 c -7.545837,-2.09652 -11.870769,-2.57887 -12.563593,1.99949 -1.092831,7.23134 7.397037,4.44364 12.672396,3.55302 l -0.108863,-5.55251 z"
         style="fill:#ffc88a;fill-opacity:1;fill-rule:evenodd;stroke:none"
         id="path26220"
         inkscape:connector-curvature="0" />
      <path
         d="m 101.29654,940.33607 c 5.99058,-1.22476 9.36669,-1.37431 9.56669,2.20295 0.31202,5.64548 -6.04658,3.04776 -10.0595,2.08439 l 0.49281,-4.28734 z"
         style="fill:#ffc88a;fill-opacity:1;fill-rule:evenodd;stroke:none"
         id="path26224"
         inkscape:connector-curvature="0" />
      <path
         d="m 46.373883,942.32814 c -1.995261,-2.07764 -5.913791,-4.62148 -8.665873,-0.81381 3.745722,-0.86097 5.065753,-0.49988 8.665873,0.81381"
         style="fill:#ffa05d;fill-opacity:1;fill-rule:evenodd;stroke:none"
         id="path26228"
         inkscape:connector-curvature="0" />
      <path
         d="m 104.51153,943.45314 c 1.37923,-1.96177 3.97132,-4.28867 5.36496,-0.34222 -2.22887,-1.06174 -3.06249,-0.77474 -5.36496,0.34222"
         style="fill:#ffa05d;fill-opacity:1;fill-rule:evenodd;stroke:none"
         id="path26232"
         inkscape:connector-curvature="0" />
      <path
         d="m 45.032406,936.71359 1.168034,-3.31453 c 1.942461,1.9941 2.702493,2.8618 3.816128,4.92733 1.014431,1.87689 1.33444,3.32935 0.0192,4.00438 -4.556949,2.34308 -4.29774,-3.69853 -5.003361,-5.61718"
         style="fill:#dededd;fill-opacity:1;fill-rule:evenodd;stroke:none"
         id="path26236"
         inkscape:connector-curvature="0" />
      <path
         d="m 104.43967,938.70436 -0.62241,-3.50721 c -0.86243,1.30829 -1.60005,2.53171 -2.14247,3.9222 -0.49121,1.26113 -0.69122,2.25144 -0.21281,2.7675 1.66085,1.78526 2.60168,-1.88093 2.97769,-3.18249"
         style="fill:#dededd;fill-opacity:1;fill-rule:evenodd;stroke:none"
         id="path26240"
         inkscape:connector-curvature="0" />
      <path
         d="m 56.224915,935.67688 c 1.670449,-1.82434 3.689712,-2.45222 6.667401,-3.04237 3.155307,-0.62114 4.344145,-1.43225 4.064126,-2.8901 -0.507206,-2.6368 -2.748885,-3.11512 -5.144147,-2.68396 -4.582549,0.82459 -9.200291,3.06392 -10.704334,5.93786 -1.209648,2.30535 -0.304021,3.74568 0.777612,4.26847 1.35525,0.66156 2.419283,0.51065 4.339342,-1.5899"
         style="fill:#dededd;fill-opacity:1;fill-rule:evenodd;stroke:none"
         id="path26244"
         inkscape:connector-curvature="0" />
      <path
         d="m 104.15759,924.11881 c 0.84163,-0.12531 1.40484,-0.80437 1.25445,-1.5131 -0.14881,-0.71006 -0.95204,-1.18299 -1.79367,-1.05768 -10.040305,1.52253 -19.581403,2.30535 -29.125704,2.35655 -9.547493,0.0579 -19.112592,-0.61306 -29.20251,-1.9968 -0.844814,-0.11449 -1.641638,0.37322 -1.779253,1.08328 -0.134403,0.71141 0.443215,1.3824 1.288049,1.49828 10.246711,1.40395 19.979808,2.08573 29.711313,2.02913 9.729907,-0.0539 19.443812,-0.85288 29.647325,-2.39966"
         style="fill:#cda35a;fill-opacity:1;fill-rule:nonzero;stroke:none"
         id="path26248"
         inkscape:connector-curvature="0" />
      <path
         d="m 101.52871,921.85177 c -0.64322,0.0956 -1.28324,0.18325 -1.92486,0.26679 -1.027228,0.72758 -1.505649,1.41069 -2.052863,2.90492 0.614416,-0.0741 1.225642,-0.15226 1.844855,-0.23175 1.083238,-0.75856 1.496048,-1.54409 2.132868,-2.93996"
         style="fill:#9f7333;fill-opacity:1;fill-rule:nonzero;stroke:none"
         id="path26252"
         inkscape:connector-curvature="0" />
      <path
         d="m 92.41658,922.95834 c -0.64482,0.0648 -1.292838,0.12395 -1.937658,0.18189 -0.960033,0.6966 -1.428848,1.37297 -1.95366,2.78906 0.59362,-0.0445 1.190437,-0.0956 1.787254,-0.14686 1.072033,-0.7424 1.497648,-1.49963 2.104064,-2.82409"
         style="fill:#9f7333;fill-opacity:1;fill-rule:nonzero;stroke:none"
         id="path26256"
         inkscape:connector-curvature="0" />
      <path
         d="m 83.969458,923.6136 c -0.67683,0.0365 -1.355251,0.0728 -2.03206,0.10242 -0.838425,0.65617 -1.27685,1.34198 -1.772864,2.68665 0.534424,-0.0175 1.070441,-0.0391 1.608057,-0.0619 1.153638,-0.74241 1.60805,-1.46594 2.196867,-2.72708"
         style="fill:#9f7333;fill-opacity:1;fill-rule:nonzero;stroke:none"
         id="path26260"
         inkscape:connector-curvature="0" />
      <path
         d="m 75.119271,923.90312 -0.627228,0.001 c -0.432003,0.006 -0.864026,0.006 -1.296028,0.006 -0.868836,0.65213 -1.320051,1.31233 -1.811269,2.60176 0.560019,0.007 1.118438,0.009 1.678463,0.009 1.052822,-0.70736 1.496036,-1.41878 2.056062,-2.61794"
         style="fill:#9f7333;fill-opacity:1;fill-rule:nonzero;stroke:none"
         id="path26264"
         inkscape:connector-curvature="0" />
      <path
         d="m 66.654829,923.79124 c -0.592021,-0.0229 -1.185633,-0.0445 -1.779253,-0.0728 -0.92803,0.66021 -1.404845,1.28943 -1.897662,2.52497 0.592021,0.031 1.184041,0.0579 1.774457,0.0862 0.940827,-0.67906 1.364842,-1.38374 1.902458,-2.53843"
         style="fill:#9f7333;fill-opacity:1;fill-rule:nonzero;stroke:none"
         id="path26268"
         inkscape:connector-curvature="0" />
      <path
         d="m 57.833601,923.27805 c -0.577619,-0.0445 -1.156836,-0.0943 -1.737652,-0.14416 -0.915227,0.64807 -1.392042,1.26247 -1.875266,2.45625 0.580816,0.0525 1.164843,0.10782 1.74406,0.15764 0.921629,-0.66426 1.345644,-1.35681 1.868858,-2.46973"
         style="fill:#9f7333;fill-opacity:1;fill-rule:nonzero;stroke:none"
         id="path26272"
         inkscape:connector-curvature="0" />
      <path
         d="m 49.477033,922.44528 c -0.494416,-0.0606 -0.988831,-0.11856 -1.486444,-0.18325 -1.052835,0.68178 -1.588851,1.2598 -2.086464,2.37812 0.63682,0.0822 1.273639,0.16437 1.907255,0.24253 0.771223,-0.63866 1.158434,-1.34198 1.665653,-2.4374"
         style="fill:#9f7333;fill-opacity:1;fill-rule:nonzero;stroke:none"
         id="path26276"
         inkscape:connector-curvature="0" />
      <path
         d="m 64.073628,962.73214 c -3.403311,4.51637 -3.59212,8.26207 -2.278478,11.78274 -5.006551,-4.1701 -1.830446,-9.69702 2.278478,-11.78274"
         style="fill:#cfcfce;fill-opacity:1;fill-rule:evenodd;stroke:none"
         id="path26280"
         inkscape:connector-curvature="0" />
      <path
         d="m 59.831276,962.27025 c -3.462512,2.21642 -4.644948,4.58375 -4.798544,7.10738 -2.032072,-3.68371 1.571239,-6.59134 4.798544,-7.10738"
         style="fill:#cfcfce;fill-opacity:1;fill-rule:evenodd;stroke:none"
         id="path26284"
         inkscape:connector-curvature="0" />
      <path
         d="m 93.226857,961.90312 c 3.286506,2.40102 4.283337,4.82629 4.241736,7.3553 2.312072,-3.56515 -1.060836,-6.66545 -4.241736,-7.3553"
         style="fill:#cfcfce;fill-opacity:1;fill-rule:evenodd;stroke:none"
         id="path26288"
         inkscape:connector-curvature="0" />
      <path
         d="m 63.809115,941.60035 c -1.508846,-0.0485 -2.780887,0.93777 -2.841687,2.20699 -0.0592,1.27192 1.115234,2.34174 2.622488,2.39428 1.507247,0.0499 2.779275,-0.93913 2.840088,-2.21104 0.06081,-1.26922 -1.112036,-2.33903 -2.620889,-2.39023"
         style="fill:#201b16;fill-opacity:1;fill-rule:evenodd;stroke:none"
         id="path26204-6"
         inkscape:connector-curvature="0" />
      <path
         d="m 72.200612,912.62758 -0.61609,-4.58177 3.43358,-3.10781 -4.5517,-0.84268 -1.9024,-4.21167 -2.19959,4.06279 -4.59681,0.50347 3.19875,3.35532 -0.95558,4.5315 4.17556,-2.00779 z"
         id="path8182-3-6"
         style="opacity:1;fill:#f5f69a;fill-opacity:1;stroke:none;stroke-width:1;stroke-linecap:butt;stroke-linejoin:round;stroke-miterlimit:4;stroke-dasharray:none;stroke-opacity:1"
         inkscape:connector-curvature="0" />
      <path
         d="m 70.379939,891.45267 -0.3504,-2.60588 1.95284,-1.76756 -2.58877,-0.47928 -1.08199,-2.39538 -1.25101,2.31071 -2.61443,0.28635 1.81928,1.90833 -0.54348,2.57729 2.37484,-1.14193 z"
         id="path8182-3-6-7"
         style="opacity:1;fill:#f5f69a;fill-opacity:1;stroke:none;stroke-width:1;stroke-linecap:butt;stroke-linejoin:round;stroke-miterlimit:4;stroke-dasharray:none;stroke-opacity:1"
         inkscape:connector-curvature="0" />
      <path
         sodipodi:nodetypes="csscsscscccsssc"
         inkscape:connector-curvature="0"
         id="path26"
         transform="translate(0,852.36225)"
         d="m 167.23828,34.238281 c -8.1825,0 -13.63672,1.858594 -13.63672,4.152344 0,2.29375 1.36383,5.539063 5.45508,5.539063 4.09125,0 8.18164,-1.384766 8.18164,-1.384766 6.00114,0.26709 14.45988,11.331772 3.60547,19.064453 -10.85441,7.732691 -19.27551,6.182155 -25.41406,13.910156 -6.13855,7.728001 -3.4292,19.43802 5.0332,24.837889 11.10255,7.1692 13.56186,11.76786 12.77734,24.00586 -0.25457,3.97113 -3.25818,7.31896 -6.03571,9.49972 1.2329,1.42515 3.20557,2.686 4.76144,4.04911 2.94628,-2.11894 5.23561,-4.9374 8.0355,-9.52099 4.48836,-8.72252 -0.0958,-25.90704 -10.6499,-32.199714 -9.853,-5.87465 -9.83832,-15.934461 -1.34765,-19.576172 8.49067,-3.6417 12.81208,-4.611024 20.90429,-11.072265 8.09222,-6.461231 5.91987,-27.914257 -11.66992,-31.304688 z"
         style="fill:#77b255;fill-opacity:1;fill-rule:nonzero;stroke:none" />
      <path
         sodipodi:nodetypes="cccccccccccccsc"
         inkscape:connector-curvature="0"
         id="path25928-3"
         d="m 171.06426,958.31945 c -5.87282,1.65675 -3.80334,2.86547 -1.11359,4.00717 -2.33827,0.58722 -3.30839,3.63159 0.92863,4.0197 -4.90911,2.24573 -2.58054,2.8916 0.62851,4.09946 0.12869,1.11859 0.19063,1.24037 0.18341,2.31508 0.87328,-0.57924 1.68286,-1.0769 2.34765,-1.38868 2.48808,-1.16952 4.08131,-2.92381 -0.64843,-4.10547 3.77451,-1.57104 3.88798,-3.97892 1.08789,-5.10937 2.32045,-3.28201 0.17641,-4.05273 -3.41407,-3.83789 z m -8.26812,8.50895 c -5.55916,4.56605 -12.33692,7.59965 -12.97016,7.90514 l 5.94922,9.17969 c 1.17441,-0.13846 3.8353,-2.08816 6.79659,-4.35602 0.37678,-0.92734 0.58343,-1.83641 0.64872,-2.85492 0.33806,-5.2735 0.18232,-6.35262 -0.42437,-9.87389 z"
         style="fill:#ffc88a;fill-opacity:1;fill-rule:evenodd;stroke:none" />
      <g
         id="g20"
         transform="matrix(1.2499999,0,0,-1.2499999,149.38168,896.4644)">
        <path
           d="m 0,0 c -0.719,0 -2.295,-2.243 -3.567,-1.029 -0.44,0.42 1.818,1.278 1.727,2.017 -0.075,0.608 -2.843,1.52 -1.876,2.099 0.967,0.578 2.418,-0.841 3.513,-0.866 C 2.179,2.166 4.009,3.074 4.035,3.087 4.576,3.361 5.23,3.139 5.499,2.591 5.769,2.044 5.55,1.378 5.011,1.105 4.881,1.039 2.786,0 0,0"
           style="fill:#dd2e44;fill-opacity:1;fill-rule:nonzero;stroke:none"
           id="path22"
           inkscape:connector-curvature="0" />
      </g>
      <g
         id="g28"
         transform="matrix(1.2499999,0,0,-1.2499999,159.58131,890.67152)">
        <path
           d="m 0,0 c 0,-0.552 -0.447,-1 -1,-1 -0.553,0 -1,0.448 -1,1 0,0.552 0.447,1 1,1 0.553,0 1,-0.448 1,-1"
           style="fill:#292f33;fill-opacity:1;fill-rule:nonzero;stroke:none"
           id="path30"
           inkscape:connector-curvature="0" />
      </g>
      <path
         sodipodi:nodetypes="ccccccc"
         d="m 60.428578,993.5371 c 2.80009,1.13045 2.68808,3.53819 -1.08643,5.10923 4.72974,1.18165 3.1361,2.93457 0.64802,4.10407 -4.665749,2.1882 -19.101956,13.3589 -20.496401,13.5233 -0.501588,-1.0409 -3.22768,-9.0528 -3.091846,-10.5175 0.53762,-0.2594 16.936838,-15.83139 20.613757,-16.05774 9.401889,-0.57937 15.734879,1.85264 3.4129,3.83864"
         style="fill:#ffc88a;fill-opacity:1;fill-rule:evenodd;stroke:none"
         id="path25928"
         inkscape:connector-curvature="0" />
    </g>
  </g>
</svg>
