<?xml version="1.0" encoding="UTF-8" standalone="no"?>
<!-- Created with Inkscape (http://www.inkscape.org/) -->

<svg
   xmlns:dc="http://purl.org/dc/elements/1.1/"
   xmlns:cc="http://creativecommons.org/ns#"
   xmlns:rdf="http://www.w3.org/1999/02/22-rdf-syntax-ns#"
   xmlns:svg="http://www.w3.org/2000/svg"
   xmlns="http://www.w3.org/2000/svg"
   xmlns:sodipodi="http://sodipodi.sourceforge.net/DTD/sodipodi-0.dtd"
   xmlns:inkscape="http://www.inkscape.org/namespaces/inkscape"
   width="885"
   height="300"
   viewBox="0 0 884.99996 299.99998"
   id="svg2"
   version="1.1"
   inkscape:version="0.91 r13725"
   sodipodi:docname="title.svg">
  <defs
     id="defs4" />
  <sodipodi:namedview
     id="base"
     pagecolor="#ffffff"
     bordercolor="#666666"
     borderopacity="1.0"
     inkscape:pageopacity="0.0"
     inkscape:pageshadow="2"
     inkscape:zoom="0.98994949"
     inkscape:cx="451.76356"
     inkscape:cy="174.63164"
     inkscape:document-units="px"
     inkscape:current-layer="layer1"
     showgrid="false"
     inkscape:window-width="1600"
     inkscape:window-height="839"
     inkscape:window-x="0"
     inkscape:window-y="27"
     inkscape:window-maximized="1"
     units="px" />
  <metadata
     id="metadata7">
    <rdf:RDF>
      <cc:Work
         rdf:about="">
        <dc:format>image/svg+xml</dc:format>
        <dc:type
           rdf:resource="http://purl.org/dc/dcmitype/StillImage" />
        <dc:title />
      </cc:Work>
    </rdf:RDF>
  </metadata>
  <g
     inkscape:label="Capa 1"
     inkscape:groupmode="layer"
     id="layer1"
     transform="translate(0,-752.36226)">
    <path
       inkscape:connector-curvature="0"
       id="path4198"
       d="m 160.57144,620.21939 0,-128 128,0 128,0 0,128 0,128 -128,0 -128,0 0,-128 z"
       style="fill:#fefefd" />
    <g
       style="font-style:normal;font-weight:normal;font-size:40px;line-height:125%;font-family:sans-serif;letter-spacing:0px;word-spacing:0px;fill:#000000;fill-opacity:1;stroke:none;stroke-width:1px;stroke-linecap:butt;stroke-linejoin:miter;stroke-opacity:1"
       id="text4146">
      <g
         style="font-style:normal;font-weight:normal;font-size:40px;line-height:125%;font-family:sans-serif;letter-spacing:0px;word-spacing:0px;fill:#000000;fill-opacity:1;stroke:none;stroke-width:1px;stroke-linecap:butt;stroke-linejoin:miter;stroke-opacity:1"
         id="text4154" />
    </g>
    <g
       style="font-style:normal;font-weight:normal;font-size:40px;line-height:125%;font-family:sans-serif;letter-spacing:0px;word-spacing:0px;fill:#000000;fill-opacity:1;stroke:none;stroke-width:1px;stroke-linecap:butt;stroke-linejoin:miter;stroke-opacity:1"
       id="text4322"
       transform="matrix(1.2470695,0,0,1.2470695,32.453438,-222.06448)">
      <path
         d="m 136.76096,898.81708 q 9.46045,-8.97216 9.46045,-21.17919 l 0,-0.061 q 0,-9.0332 -3.2959,-12.45117 -2.07519,-2.13623 -7.26318,-5.85937 0.061,6.59179 0.54932,19.77539 0.54931,13.18359 0.54931,19.77538 z m -5.85937,45.95947 0.61035,-44.61669 q 0,-29.66309 -3.17383,-44.6167 1.95313,-2.80761 4.76074,-2.80761 4.63867,0 8.42285,2.07519 3.84522,2.0752 6.22559,5.49316 4.94385,7.20215 4.94385,16.35742 0,9.09424 -3.96729,16.60157 -3.96728,7.44628 -11.65771,11.59667 l 0.97656,38.94043 q 0,5.18799 -4.15039,5.18799 -1.52588,0 -2.2583,-1.28174 -0.73242,-1.34278 -0.73242,-2.92969 z"
         style="font-style:normal;font-variant:normal;font-weight:bold;font-stretch:normal;font-size:124.99998474px;font-family:'Amatic SC';-inkscape-font-specification:'Amatic SC Bold'"
         id="path4346"
         inkscape:connector-curvature="0" />
      <path
         d="m 179.72971,946.91278 -4.69971,0.061 -5.43213,0.24414 q -3.479,0 -4.63867,-2.2583 0,-1.83106 0.42725,-2.80762 0.48828,-1.0376 1.95312,-1.0376 l 3.54004,0 0.24414,-1.64795 -0.85449,-26.55029 0.67139,-27.83202 q 0,-7.01905 -0.61036,-13.30567 -2.62451,0 -4.88281,0 -2.19726,0 -3.23486,-0.67138 -1.0376,-0.73243 -1.0376,-2.68555 0,-2.92969 6.7749,-2.86865 l 0.42725,0 q 16.05224,0 16.05224,4.27246 0,0.67138 -0.73242,2.31933 l -6.40869,0 q 0.48828,4.57764 0.48828,10.74219 l -0.67138,23.86474 0.91552,26.55029 0,3.72315 q 0,1.09863 -0.42724,3.35693 l 5.31005,0 q 5.12696,0 5.12696,3.11279 0,1.40381 -0.91553,2.38037 -0.85449,0.97657 -1.95312,0.97657 l -5.43213,0.061 z"
         style="font-style:normal;font-variant:normal;font-weight:bold;font-stretch:normal;font-size:124.99998474px;font-family:'Amatic SC';-inkscape-font-specification:'Amatic SC Bold'"
         id="path4348"
         inkscape:connector-curvature="0" />
      <path
         d="m 205.4255,880.2624 -0.67138,24.35302 0,0.18311 q 7.56836,-1.0376 7.56836,-21.11816 0,-7.32422 -3.23487,-9.39942 -1.46484,-0.91552 -3.66211,-0.91552 l 0,6.89697 z m -7.01904,14.03808 0.18311,-11.90185 q 0,-7.38525 -1.0376,-11.59668 0.30518,-1.58691 1.15967,-2.99072 0.91553,-1.40381 2.2583,-1.40381 l 5.49316,0 q 7.20215,0 10.13184,5.98144 2.56347,5.31006 2.56347,12.20703 0,8.72803 -0.42724,10.74219 -0.42725,1.95312 -0.91553,3.72314 -0.48828,1.77002 -1.2207,2.86866 -0.67139,1.09863 -1.77002,2.4414 -1.09863,1.28174 -2.50244,2.19727 -3.1128,2.01416 -7.50733,3.41797 l 0,13.36669 0.97657,23.68164 q 0,1.58692 -1.09864,2.62451 -1.09863,1.0376 -2.68554,1.0376 l -3.05176,0 q -0.73242,-3.41797 -0.73242,-10.19287 l -0.30518,-31.98242 0.48828,-14.22119 z"
         style="font-style:normal;font-variant:normal;font-weight:bold;font-stretch:normal;font-size:124.99998474px;font-family:'Amatic SC';-inkscape-font-specification:'Amatic SC Bold'"
         id="path4350"
         inkscape:connector-curvature="0" />
      <path
         d="m 246.31905,946.85175 q 0,-3.35694 2.80762,-3.35694 1.40381,0 3.66211,0.97656 2.31933,0.91553 3.96728,0.91553 1.70899,0 3.66211,-2.13623 1.95313,-2.13623 3.05176,-5.31006 2.2583,-6.40869 2.2583,-11.65771 0,-5.24902 -1.83105,-11.23047 -1.83106,-5.98144 -4.5166,-11.23046 -2.62452,-5.24903 -5.24903,-10.49805 -6.28662,-12.57324 -6.28662,-22.82715 0,-9.76562 6.16455,-15.31982 3.2959,-2.92968 7.75147,-2.92968 2.2583,0 4.39453,1.28173 2.13623,1.22071 2.99072,3.23487 l 0,2.68554 q -5.24902,0 -7.01904,-1.2207 -2.31934,0.24414 -4.02832,2.19727 -3.1128,3.6621 -3.1128,8.48388 0,4.76074 1.40381,9.88769 1.40381,5.06592 3.35694,9.58252 1.95312,4.45557 3.90625,8.30078 2.01416,3.84522 3.41796,6.28662 1.40381,2.44141 1.40381,2.56348 l 0,0.97656 q 0.42725,1.58692 1.46485,5.00488 1.03759,3.41797 1.64794,5.43213 1.52588,5.49317 1.52588,9.94873 0,4.45557 -1.09863,8.48389 -1.0376,4.02832 -3.05176,7.62939 -1.95312,3.54004 -5.37109,5.79834 -3.35693,2.2583 -6.28662,2.2583 -2.92969,0 -4.94385,-0.30517 -2.01416,-0.30518 -4.02832,-1.34278 -2.01416,-1.0376 -2.01416,-2.56347 z"
         style="font-style:normal;font-variant:normal;font-weight:bold;font-stretch:normal;font-size:124.99998474px;font-family:'Amatic SC';-inkscape-font-specification:'Amatic SC Bold'"
         id="path4352"
         inkscape:connector-curvature="0" />
      <path
         d="m 312.7253,928.11396 -0.67139,2.50244 q 0,1.52587 1.09864,7.44628 1.09863,5.92041 1.09863,7.75147 l 0,0.12207 q 0,2.80762 -1.89209,3.54004 -2.62451,0 -4.08936,-0.85449 -1.46484,-0.8545 -1.46484,-4.27247 0,-3.479 -1.83105,-14.22118 l -3.84522,-0.36622 -4.15039,0 q -1.40381,-0.61035 -4.94385,-0.61035 0,0.12207 -0.1831,1.64795 -0.12207,1.46485 -0.24414,2.38037 -0.061,0.91553 -0.30518,2.74658 -0.1831,1.77002 -0.42724,3.05176 -0.24414,1.2207 -0.61036,2.92969 -0.36621,1.64795 -0.85449,2.80762 -0.42724,1.09863 -0.97656,2.13623 -1.09863,2.13623 -2.68555,2.13623 -1.58691,0 -2.86865,-0.91553 -1.2207,-0.97656 -1.2207,-2.44141 3.2959,-12.63427 5.61523,-26.48925 2.38037,-13.85498 2.80762,-16.41846 0.48828,-2.62451 2.13623,-10.00976 1.70898,-7.44629 2.01416,-9.94873 0.36621,-2.50244 0.67139,-6.46973 0.54931,-8.66699 2.2583,-11.16943 l 4.21142,0 q 4.27246,0 4.27246,2.56348 0,24.10888 4.69971,47.91259 0.24414,1.40381 0.91553,3.90625 1.46484,5.43213 1.46484,8.60596 z m -8.54492,-2.68555 q -0.36621,-1.83106 -0.36621,-5.92041 0,-4.08936 -0.54932,-9.88769 -0.48828,-5.85938 -1.46484,-13.54981 -0.97656,-7.69043 -1.34278,-11.1084 -0.73242,3.54004 -2.86865,11.84082 -4.33349,17.27295 -4.45556,26.61133 2.13623,1.40381 11.04736,2.01416 z"
         style="font-style:normal;font-variant:normal;font-weight:bold;font-stretch:normal;font-size:124.99998474px;font-family:'Amatic SC';-inkscape-font-specification:'Amatic SC Bold'"
         id="path4354"
         inkscape:connector-curvature="0" />
      <path
         d="m 332.43966,878.24824 0.36621,30.02929 q -0.73242,1.77002 -0.73242,6.7749 l -0.48828,19.89746 q 0,8.60596 4.21142,8.60596 l 5.18799,-0.18311 q 6.71386,0 6.71386,3.66211 0,1.34277 -1.15966,2.19727 -1.15967,0.91552 -2.62451,1.09863 -4.57764,-1.46484 -11.16944,-1.46484 -2.01416,1.15966 -3.90625,1.15966 -1.83105,0 -2.86865,-1.28173 -1.0376,-1.28174 -1.0376,-2.80762 l 1.22071,-55.84716 0,-0.91553 q -0.36621,-3.90625 -0.36621,-11.71875 0,-11.84082 4.33349,-11.84082 1.28174,0 2.19727,0.91553 0.97656,0.91553 0.97656,2.19727 l -0.85449,9.52148 z"
         style="font-style:normal;font-variant:normal;font-weight:bold;font-stretch:normal;font-size:124.99998474px;font-family:'Amatic SC';-inkscape-font-specification:'Amatic SC Bold'"
         id="path4356"
         inkscape:connector-curvature="0" />
      <path
         d="m 385.96747,928.11396 -0.67139,2.50244 q 0,1.52587 1.09864,7.44628 1.09863,5.92041 1.09863,7.75147 l 0,0.12207 q 0,2.80762 -1.89209,3.54004 -2.62451,0 -4.08935,-0.85449 -1.46485,-0.8545 -1.46485,-4.27247 0,-3.479 -1.83105,-14.22118 l -3.84522,-0.36622 -4.15039,0 q -1.40381,-0.61035 -4.94384,-0.61035 0,0.12207 -0.18311,1.64795 -0.12207,1.46485 -0.24414,2.38037 -0.061,0.91553 -0.30518,2.74658 -0.1831,1.77002 -0.42724,3.05176 -0.24414,1.2207 -0.61035,2.92969 -0.36621,1.64795 -0.8545,2.80762 -0.42724,1.09863 -0.97656,2.13623 -1.09863,2.13623 -2.68554,2.13623 -1.58692,0 -2.86866,-0.91553 -1.2207,-0.97656 -1.2207,-2.44141 3.2959,-12.63427 5.61523,-26.48925 2.38038,-13.85498 2.80762,-16.41846 0.48828,-2.62451 2.13623,-10.00976 1.70899,-7.44629 2.01416,-9.94873 0.36621,-2.50244 0.67139,-6.46973 0.54931,-8.66699 2.2583,-11.16943 l 4.21142,0 q 4.27246,0 4.27246,2.56348 0,24.10888 4.69971,47.91259 0.24414,1.40381 0.91553,3.90625 1.46484,5.43213 1.46484,8.60596 z m -8.54492,-2.68555 q -0.36621,-1.83106 -0.36621,-5.92041 0,-4.08936 -0.54932,-9.88769 -0.48828,-5.85938 -1.46484,-13.54981 -0.97656,-7.69043 -1.34277,-11.1084 -0.73243,3.54004 -2.86866,11.84082 -4.33349,17.27295 -4.45556,26.61133 2.13623,1.40381 11.04736,2.01416 z"
         style="font-style:normal;font-variant:normal;font-weight:bold;font-stretch:normal;font-size:124.99998474px;font-family:'Amatic SC';-inkscape-font-specification:'Amatic SC Bold'"
         id="path4358"
         inkscape:connector-curvature="0" />
      <path
         d="m 416.48505,862.68428 q 0,-8.17871 4.69971,-8.17871 5.7373,0 9.94873,2.74658 8.54492,5.43213 8.54492,17.76123 0,9.52148 -7.62939,20.26367 5.31005,7.50732 6.40869,8.85009 1.15966,1.34277 2.01416,2.80762 0.85449,1.40381 0.97656,1.77002 0.12207,0.30517 0.42725,1.89209 0.30517,1.58691 0.36621,2.74658 0.061,2.99072 0.54931,7.08008 0.54932,4.08935 0.73242,4.57763 0.18311,0.48828 -0.48828,3.17383 -0.61035,2.62451 -0.85449,3.54004 -0.24414,0.85449 -0.67139,2.4414 -0.42724,1.52588 -0.73242,2.31934 -0.30517,0.73242 -0.85449,2.01416 -0.54932,1.2207 -1.09863,1.89209 -0.54932,0.61035 -1.34278,1.64795 -0.79345,0.97656 -1.70898,1.64795 -0.91553,0.61035 -2.07519,1.46484 -3.84522,2.68555 -6.89698,3.41797 -2.99072,0.79346 -3.35693,0.79346 l -0.61035,0 q -3.41797,0 -4.3335,-0.48828 -1.77002,-0.97657 -1.77002,-2.62452 l 0.61036,-30.76171 -0.8545,-50.78124 0,-2.01416 z m 11.47461,37.71972 0,-0.061 -4.27246,0 q 0.54932,15.50293 0.54932,42.48047 6.04248,-0.97657 9.52148,-5.73731 3.479,-4.82177 3.479,-11.2915 0,-21.11816 -9.27734,-25.39062 z m -2.99072,-38.81836 q -1.70899,0 -1.70899,4.5166 0,4.45557 0.24415,14.09912 0.24414,9.58252 0.24414,13.91602 4.45556,-1.0376 7.62939,-10.98633 1.70898,-5.31006 2.19726,-6.40869 l 0,-4.45557 q 0,-3.6621 -2.62451,-7.14111 -2.56347,-3.54004 -5.98144,-3.54004 z"
         style="font-style:normal;font-variant:normal;font-weight:bold;font-stretch:normal;font-size:124.99998474px;font-family:'Amatic SC';-inkscape-font-specification:'Amatic SC Bold'"
         id="path4360"
         inkscape:connector-curvature="0" />
      <path
         d="m 470.01288,946.91278 -4.6997,0.061 -5.43213,0.24414 q -3.479,0 -4.63867,-2.2583 0,-1.83106 0.42724,-2.80762 0.48828,-1.0376 1.95313,-1.0376 l 3.54004,0 0.24414,-1.64795 -0.85449,-26.55029 0.67138,-27.83202 q 0,-7.01905 -0.61035,-13.30567 -2.62451,0 -4.88281,0 -2.19727,0 -3.23486,-0.67138 -1.0376,-0.73243 -1.0376,-2.68555 0,-2.92969 6.7749,-2.86865 l 0.42725,0 q 16.05224,0 16.05224,4.27246 0,0.67138 -0.73242,2.31933 l -6.40869,0 q 0.48828,4.57764 0.48828,10.74219 l -0.67139,23.86474 0.91553,26.55029 0,3.72315 q 0,1.09863 -0.42725,3.35693 l 5.31006,0 q 5.12695,0 5.12695,3.11279 0,1.40381 -0.91552,2.38037 -0.8545,0.97657 -1.95313,0.97657 l -5.43213,0.061 z"
         style="font-style:normal;font-variant:normal;font-weight:bold;font-stretch:normal;font-size:124.99998474px;font-family:'Amatic SC';-inkscape-font-specification:'Amatic SC Bold'"
         id="path4362"
         inkscape:connector-curvature="0" />
      <path
         d="m 494.54902,942.88446 0.1831,3.72315 q 0,2.01416 -0.85449,3.05175 -0.79346,1.09864 -2.62451,1.09864 -1.83106,0 -2.99072,-0.91553 -1.15967,-0.85449 -1.09864,-2.50244 0.061,-1.70899 1.40381,-31.31103 1.40381,-29.66309 1.40381,-44.67773 0.18311,-3.17383 0.97656,-4.21143 0.79346,-1.09863 2.2583,-1.2207 1.46485,-0.12207 1.95313,0.12207 0.48828,0.24414 0.85449,0.85449 0.42725,0.54932 0.67139,1.0376 0.30517,0.48828 0.54931,1.52588 0.24414,0.97656 0.36621,1.52588 0.12208,0.48828 0.30518,1.64794 0.18311,1.09864 0.36621,2.19727 0.18311,1.0376 1.83106,8.66699 1.64794,7.56836 3.60107,19.59228 2.01416,11.96289 4.63867,30.39551 3.84522,-20.56885 6.65283,-39.00146 2.80762,-18.43262 2.92969,-19.59228 0.1831,-1.15967 0.24414,-1.70899 0.12207,-0.54932 0.36621,-1.64795 0.24414,-1.09863 0.42725,-1.70898 0.24414,-0.61035 0.67138,-1.40381 0.42725,-0.85449 0.91553,-1.28174 1.15967,-1.09863 2.74658,-1.09863 1.58692,0 3.05176,0.91553 1.46484,0.91552 1.46484,2.50244 0,28.68652 0.48828,39.73388 0.54932,11.04736 0.54932,13.30566 l -0.12207,20.1416 q 0.54932,1.34277 0.54932,2.86865 0,1.46485 -0.97657,3.17383 -0.97656,1.70898 -2.56347,1.70898 -3.90625,0 -3.90625,-7.81249 l 0.1831,-11.53565 q 0,-12.14599 -0.24414,-21.72851 0.18311,-5.67627 0.18311,-29.66308 -1.89209,11.71875 -5.24902,31.4331 -3.35694,19.71435 -3.60108,20.93505 -0.1831,1.15967 -0.30517,2.25831 -0.12207,1.09863 -0.24414,1.89208 -0.12207,0.79346 -0.48828,1.83106 -0.30518,1.0376 -0.73243,1.70898 -1.03759,1.64795 -2.92968,1.64795 -3.66211,0 -4.39453,-5.37109 -0.97657,-7.62939 -4.02832,-26.79443 -2.99073,-19.22607 -4.45557,-25.8789 -0.97656,42.78564 -0.97656,59.5703 z"
         style="font-style:normal;font-variant:normal;font-weight:bold;font-stretch:normal;font-size:124.99998474px;font-family:'Amatic SC';-inkscape-font-specification:'Amatic SC Bold'"
         id="path4364"
         inkscape:connector-curvature="0" />
    </g>
  </g>
</svg>
